<?xml version="1.0" encoding="utf-8"?>
<!-- Generator: Adobe Illustrator 16.0.0, SVG Export Plug-In . SVG Version: 6.00 Build 0)  -->
<!DOCTYPE svg PUBLIC "-//W3C//DTD SVG 1.1//EN" "http://www.w3.org/Graphics/SVG/1.1/DTD/svg11.dtd">
<svg version="1.1" id="Layer_1" xmlns="http://www.w3.org/2000/svg" xmlns:xlink="http://www.w3.org/1999/xlink" x="0px" y="0px"
	 width="28px" height="28px" viewBox="-6 -6 28 28" enable-background="new -6 -6 28 28" xml:space="preserve">
<path fill="#221f1f" d="M21.533,19.273l-8.699-8.699c1.323-1.732,2.115-3.882,2.115-6.217C14.949-1.353,10.252-6,4.475-6
	C-1.302-6-6-1.353-6,4.358c0,5.712,4.7,10.365,10.475,10.365c2.258,0,4.327-0.744,6.039-1.949l8.761,8.76
	C19.588,21.846,19.995,22,20.404,22s0.814-0.154,1.129-0.467C22.156,20.91,22.156,19.9,21.533,19.273z M-2.704,4.358
	c0-3.911,3.22-7.097,7.178-7.097s7.177,3.186,7.177,7.097c0,3.917-3.218,7.097-7.177,7.097S-2.704,8.275-2.704,4.358z"/>
</svg>
