<?xml version="1.0" encoding="utf-8"?>
<!-- Generator: Adobe Illustrator 16.0.0, SVG Export Plug-In . SVG Version: 6.00 Build 0)  -->
<!DOCTYPE svg PUBLIC "-//W3C//DTD SVG 1.1//EN" "http://www.w3.org/Graphics/SVG/1.1/DTD/svg11.dtd">
<svg version="1.1" id="Layer_1" xmlns="http://www.w3.org/2000/svg" xmlns:xlink="http://www.w3.org/1999/xlink" x="0px" y="0px"
	 width="568.582px" height="373.398px" viewBox="0 0 568.582 373.398" enable-background="new 0 0 568.582 373.398"
	 xml:space="preserve">



<g id="cloud2" >
	<path fill="#FFFFFF" stroke="#000000" stroke-width="3" stroke-miterlimit="10" d="M148.938,132.687
		c0-6.958-5.66-12.619-12.617-12.619c-0.426,0-0.854,0.02-1.282,0.064c-0.471,0.047-0.94-0.116-1.278-0.446
		c-0.341-0.33-0.521-0.794-0.484-1.267l0.01-0.162c0.027-0.39,0.054-0.753,0.054-1.109c0-9.845-8.012-17.857-17.856-17.857
		c-4.344,0-8.526,1.579-11.777,4.447c-3.225,2.838-5.318,6.74-5.897,10.979c-0.113,0.854-0.883,1.467-1.743,1.383
		c-0.503-0.048-0.958-0.07-1.389-0.07c-8.068,0-14.636,6.567-14.636,14.636c0,8.074,6.567,14.639,14.636,14.639h41.642
		C143.277,145.304,148.938,139.644,148.938,132.687z"/>
	<g>
		<g>
			<path d="M116.082,104.515c-6.023,0-11.181,4.5-11.994,10.472c-0.108,0.788,0.442,1.515,1.233,1.622
				c0.065,0.009,0.129,0.013,0.195,0.013c0.71,0,1.326-0.522,1.426-1.246c0.622-4.548,4.552-7.978,9.14-7.978
				c0.795,0,1.444-0.648,1.444-1.442C117.526,105.16,116.877,104.515,116.082,104.515z"/>
		</g>
	</g>

		<animateTransform 
		attributeName="transform"
		attributeType="XML"
		type="translate"
		dur="2s"
		values="10,0;-10,0;10,0"
		repeatCount="indefinite" />

</g>



<rect x="385" y="296.398" fill="#FFFFFF" width="14" height="15"/>
<g id="star1">
	<g>	
	<path fill="#FFBF4D" d="M21.951,154.285c-4.902,0-8.876-3.975-8.876-8.875c0,4.9-3.975,8.875-8.873,8.875
		c4.902,0,8.873,3.975,8.873,8.875C13.075,158.259,17.049,154.285,21.951,154.285z"/>
		<animate attributeName="opacity" values="0;1;0" dur="1s" repeatCount="indefinite"/>
	</g>	
	<path fill="#231F20" d="M12.88,164.835c-0.924-0.018-1.663-0.783-1.646-1.709c0.073-3.967-3.096-7.253-7.062-7.326
		c-0.928-0.018-1.666-0.783-1.649-1.711c0.018-0.928,0.784-1.665,1.711-1.648c3.966,0.074,7.254-3.094,7.327-7.061
		c0.017-0.926,0.784-1.664,1.709-1.646c0.928,0.018,1.668,0.781,1.65,1.709c-0.073,3.967,3.091,7.253,7.06,7.326
		c0.929,0.018,1.664,0.782,1.647,1.711c-0.018,0.928-0.781,1.665-1.709,1.648c-3.969-0.074-7.252,3.094-7.325,7.061
		C14.576,164.115,13.809,164.853,12.88,164.835z M7.992,154.191c2.006,1.35,3.708,3.12,4.986,5.182
		c1.354-2.014,3.12-3.717,5.188-4.994c-2.019-1.35-3.722-3.121-4.999-5.182C11.813,151.209,10.046,152.916,7.992,154.191z"/>
	
	
	

</g>

<g>
<path fill="#FFBF4D" d="M27.97,168.788c1.957,0,3.543,1.586,3.543,3.545c0,1.956-1.586,3.543-3.543,3.543
	c-1.961,0-3.547-1.587-3.547-3.543C24.423,170.374,26.009,168.788,27.97,168.788z"/>
<animate attributeName="opacity" values="1;0;1" dur="1s" repeatCount="indefinite"/>
</g>
<path fill="#231F20" d="M26.97,177.553c-2.88,0-5.225-2.341-5.225-5.221s2.345-5.224,5.225-5.224c2.877,0,5.221,2.344,5.221,5.224
	S29.847,177.553,26.97,177.553z M26.97,169.1c-1.783,0-3.232,1.449-3.232,3.232c0,1.782,1.449,3.232,3.232,3.232
	c1.782,0,3.232-1.45,3.232-3.232C30.202,170.549,28.752,169.1,26.97,169.1z"/>

<path fill="#231F20" d="M13.075,172.334c1.163,0,2.109,0.941,2.109,2.104c0,1.162-0.946,2.104-2.109,2.104
	c-1.159,0-2.101-0.941-2.101-2.104C10.975,173.276,11.916,172.334,13.075,172.334z"/>
<path fill="#231F20" d="M26.575,139.794c1.164,0,2.109,0.941,2.109,2.105c0,1.162-0.945,2.104-2.109,2.104
	c-1.159,0-2.104-0.942-2.104-2.104C24.471,140.736,25.416,139.794,26.575,139.794z"/>
<g>
<path fill="#FFBF4D" d="M539.289,49.078c-5.879,0-10.645-4.766-10.645-10.643c0,5.877-4.766,10.643-10.641,10.643
	c5.879,0,10.641,4.766,10.641,10.642C528.646,53.843,533.41,49.078,539.289,49.078z"/>
<animate attributeName="opacity" values="1;0;1" dur="1s" repeatCount="indefinite"/>
</g>
<g>
<path fill="#FFBF4D" d="M552.712,194.191c2.715,0,4.914,2.199,4.914,4.916c0,2.715-2.199,4.914-4.914,4.914
	c-2.719,0-4.92-2.199-4.92-4.914C547.792,196.391,549.994,194.191,552.712,194.191z"/>
<animate attributeName="opacity" values="0;1;0" dur="1s" repeatCount="indefinite"/>
</g>
<path fill="#231F20" d="M528.412,61.729c-1.109-0.021-1.996-0.938-1.975-2.048c0.09-4.758-3.713-8.698-8.469-8.787
	c-1.111-0.02-1.998-0.938-1.977-2.05c0.02-1.112,0.939-1.997,2.051-1.978c4.756,0.088,8.699-3.709,8.787-8.466
	c0.02-1.11,0.939-1.995,2.049-1.975c1.113,0.021,2,0.936,1.98,2.049c-0.09,4.757,3.705,8.697,8.465,8.784
	c1.111,0.021,1.996,0.939,1.975,2.051c-0.02,1.113-0.936,1.998-2.049,1.978c-4.76-0.087-8.695,3.71-8.783,8.468
	C530.445,60.865,529.525,61.75,528.412,61.729z M522.55,48.964c2.404,1.619,4.445,3.742,5.979,6.214
	c1.623-2.414,3.742-4.456,6.221-5.987c-2.42-1.619-4.463-3.743-5.994-6.215C527.132,45.39,525.013,47.436,522.55,48.964z"/>
<path fill="#231F20" d="M552.712,206.35c-3.994,0-7.246-3.246-7.246-7.242c0-3.991,3.252-7.242,7.246-7.242
	c3.99,0,7.24,3.251,7.24,7.242C559.953,203.104,556.703,206.35,552.712,206.35z M552.712,194.625c-2.473,0-4.482,2.01-4.482,4.482
	c0,2.475,2.01,4.483,4.482,4.483c2.471,0,4.482-2.009,4.482-4.483C557.195,196.635,555.183,194.625,552.712,194.625z"/>
<path fill="#231F20" d="M532.056,199.111c1.613,0,2.926,1.306,2.926,2.92c0,1.611-1.313,2.917-2.926,2.917
	c-1.607,0-2.914-1.306-2.914-2.917C529.142,200.417,530.447,199.111,532.056,199.111z"/>
<path fill="#231F20" d="M543.824,29.179c1.395,0,2.527,1.129,2.527,2.523c0,1.393-1.135,2.523-2.527,2.523s-2.525-1.131-2.525-2.523
	C541.298,30.308,542.433,29.179,543.824,29.179z"/>
<g id="cloud1">
	<path fill="#FFBF4D" stroke="#000000" stroke-width="4" stroke-miterlimit="10" d="M462.31,72.724
		c-11.648-11.075-15.496-28.807-8.275-44.121c3.609-7.664,9.492-13.772,17-17.664c0.982-0.508,1.492-1.621,1.236-2.698
		c-0.256-1.075-1.211-1.841-2.318-1.854c-8.594-0.098-17.02,2.232-24.361,6.736c-7.541,4.626-13.527,11.317-17.314,19.351
		c-10.689,22.677-0.939,49.825,21.736,60.515c8.037,3.787,16.912,5.135,25.674,3.908c8.531-1.197,16.514-4.764,23.078-10.309
		c0.848-0.715,1.098-1.91,0.609-2.904c-0.486-0.992-1.588-1.529-2.672-1.295c-8.268,1.776-16.689,0.807-24.357-2.807
		c-2.119-1-4.104-2.172-5.947-3.487"/>
	<path fill="#FFFFFF" stroke="#000000" stroke-width="4" stroke-miterlimit="10" d="M520.761,90.458
		c0-9.626-7.83-17.458-17.455-17.458c-0.59,0-1.182,0.028-1.771,0.088c-0.652,0.065-1.301-0.16-1.77-0.617
		c-0.471-0.456-0.721-1.097-0.67-1.751l0.016-0.227c0.035-0.536,0.072-1.041,0.072-1.531c0-13.623-11.082-24.705-24.701-24.705
		c-6.014,0-11.797,2.184-16.297,6.152c-4.461,3.926-7.355,9.322-8.154,15.188c-0.16,1.182-1.225,2.028-2.412,1.913
		c-0.697-0.064-1.326-0.097-1.922-0.097c-11.164,0-20.25,9.084-20.25,20.25c0,11.168,9.086,20.252,20.25,20.252h57.609
		C512.931,107.916,520.761,100.083,520.761,90.458z"/>
	<g>
		<g>
			<path d="M475.308,51.483c-8.336,0-15.469,6.228-16.596,14.487c-0.146,1.092,0.613,2.096,1.707,2.245
				c0.09,0.012,0.18,0.019,0.271,0.019c0.98,0,1.834-0.725,1.971-1.725c0.859-6.293,6.297-11.039,12.645-11.039
				c1.102,0,1.996-0.895,1.996-1.994C477.302,52.375,476.408,51.483,475.308,51.483z"/>
		</g>
	</g>

		<animateTransform 
		attributeName="transform"
		attributeType="XML"
		type="translate"
		dur="2s"
		values="0,10;0, 0;0,10"
		repeatCount="indefinite" />


</g>
<g>
<path id="cloud3" fill="#FFFFFF" stroke="#000000" stroke-width="3" stroke-miterlimit="10" d="M544.421,242.779
	c0-5.131-4.172-9.305-9.301-9.305c-0.314,0-0.631,0.017-0.945,0.049c-0.346,0.033-0.691-0.086-0.941-0.33
	c-0.25-0.241-0.385-0.582-0.357-0.933l0.01-0.122c0.02-0.285,0.039-0.556,0.039-0.814c0-7.26-5.906-13.164-13.164-13.164
	c-3.203,0-6.287,1.164-8.684,3.277c-2.377,2.09-3.92,4.967-4.346,8.094c-0.084,0.631-0.652,1.08-1.285,1.018
	c-0.371-0.031-0.705-0.051-1.023-0.051c-5.949,0-10.791,4.84-10.791,10.791s4.842,10.793,10.791,10.793h30.697
	C540.25,252.082,544.421,247.907,544.421,242.779z"/>

		<animateTransform 
		attributeName="transform"
		attributeType="XML"
		type="translate"
		dur="2s"
		values="7,0;-7,0;7,0"
		repeatCount="indefinite" />

</g>
		
<circle fill="#FFFFFF" stroke="#000000" stroke-width="4" stroke-miterlimit="10" cx="336.875" cy="118.16" r="20.572"/>
<path d="M334.197,137.368v17.282c0,0.968,0.928,1.748,2.074,1.748s2.075-0.78,2.075-1.748v-26.752l10.218-7.9
	c0.846-0.652,0.9-1.757,0.123-2.467c-0.777-0.71-2.087-0.756-2.938-0.102l-7.403,5.725v-11.649c0-0.965-0.929-1.745-2.075-1.745
	s-2.074,0.78-2.074,1.745v21.125"/>
<line fill="none" stroke="#000000" stroke-width="4" stroke-linecap="round" stroke-miterlimit="10" x1="99" y1="363.398" x2="490" y2="363.398"/>
<line fill="none" stroke="#000000" stroke-width="4" stroke-linecap="round" stroke-miterlimit="10" x1="513" y1="363.398" x2="543" y2="363.398"/>
<line fill="none" stroke="#000000" stroke-width="4" stroke-linecap="round" stroke-miterlimit="10" x1="556" y1="363.398" x2="559" y2="363.398"/>
<line fill="none" stroke="#000000" stroke-width="4" stroke-linecap="round" stroke-miterlimit="10" x1="11" y1="363.398" x2="44" y2="363.398"/>
<line fill="none" stroke="#000000" stroke-width="4" stroke-linecap="round" stroke-miterlimit="10" x1="86" y1="363.398" x2="89" y2="363.398"/>
<line fill="none" stroke="#000000" stroke-width="4" stroke-linecap="round" stroke-miterlimit="10" x1="64" y1="363.398" x2="78" y2="363.398"/>
<g transform="translate(1 1)">
	<path d="M129.715,332.831h-12.588c-2.307,0-4.193-1.886-4.193-4.193v-12.593V286.68v-4.197c0-2.309,1.887-4.192,4.193-4.192h12.588
		V332.831L129.715,332.831z"/>
</g>
<path d="M112.885,329.637v-46.154c0-2.94,2.308-5.248,5.247-5.248h12.583c0.631,0,1.05,0.422,1.05,1.055
	c0,0.625-0.419,1.045-1.05,1.045h-12.583c-1.68,0-3.148,1.471-3.148,3.148v46.154c0,1.678,1.469,3.145,3.148,3.145h12.583
	c0.631,0,1.05,0.417,1.05,1.05c0,0.632-0.419,1.049-1.05,1.049h-12.583C115.194,334.879,112.885,332.572,112.885,329.637z
	 M123.376,322.292c0-1.259,0.837-2.1,2.096-2.1c1.261,0,2.098,0.841,2.098,2.1c0,1.258-0.837,2.099-2.098,2.099
	C124.213,324.391,123.376,323.55,123.376,322.292z"/>
<g>
	<polyline fill="#16B5C1" points="77.646,268.914 77.646,263.729 76.872,263.729 49.904,263.729 49.049,263.729 49.049,271.021 
		49.049,277.13 77.646,277.13 77.646,273.128 	"/>
	<path d="M49.904,263.729h26.968l-2.107-2.063c-0.017-0.729,0.066-1.453,0.231-2.151H51.768c0.155,0.66,0.244,1.344,0.244,2.043
		L49.904,263.729z"/>
	<path fill="#FFFFFF" d="M78.688,254.262c8.202-5.265,13.099-14.216,13.099-23.943c0-7.889-3.317-15.488-9.104-20.855
		c-5.863-5.439-13.514-8.1-21.541-7.502c-14.063,1.057-25.318,12.477-26.18,26.564c-0.635,10.354,4.401,20.242,13.143,25.802
		c1.869,1.19,3.156,3.052,3.662,5.188h23.229C75.505,257.373,76.817,255.463,78.688,254.262z"/>
	<polygon points="79.753,273.128 77.646,273.128 77.646,277.13 49.049,277.13 49.049,271.021 44.835,271.021 44.835,279.236 
		46.942,281.346 54.069,281.346 53.036,283.445 55.276,286.35 56.945,287.169 69.75,287.169 71.417,286.35 73.659,283.445 
		72.626,281.346 79.753,281.346 81.861,279.236 81.861,271.021 	"/>
	<path d="M85.551,206.373c-6.733-6.248-15.514-9.305-24.723-8.615c-16.153,1.215-29.081,14.33-30.071,30.508
		c-0.729,11.885,5.053,23.234,15.088,29.616c0.62,0.396,1.121,0.962,1.458,1.632h4.465c-0.506-2.137-1.793-3.998-3.662-5.188
		c-8.742-5.56-13.778-15.447-13.143-25.802c0.862-14.088,12.117-25.508,26.18-26.564c8.027-0.598,15.677,2.063,21.541,7.502
		c5.787,5.367,9.104,12.969,9.104,20.855c0,9.729-4.897,18.68-13.099,23.942c-1.871,1.202-3.184,3.111-3.692,5.253h4.446
		c0.346-0.688,0.867-1.283,1.523-1.705c9.414-6.043,15.036-16.322,15.036-27.49C96.002,221.262,92.191,212.535,85.551,206.373z"/>
	<path d="M74.765,261.665l2.107,2.063h0.774v5.186v4.215h2.107l2.108-2.107v-9.399l-2.108-2.106h-0.31h-4.446
		C74.832,260.211,74.749,260.934,74.765,261.665z"/>
	<path d="M49.049,263.729h0.855l2.107-2.172c0-0.701-0.088-1.384-0.244-2.043h-4.465h-0.361l-2.107,2.106v9.399h4.214
		L49.049,263.729L49.049,263.729z"/>
</g>
<line fill="none" stroke="#000000" stroke-width="4" stroke-linecap="round" stroke-miterlimit="10" x1="365" y1="131.398" x2="401" y2="131.398"/>
<line fill="none" stroke="#000000" stroke-width="4" stroke-linecap="round" stroke-miterlimit="10" x1="365" y1="138.817" x2="401" y2="138.817"/>
<path fill="#FFFFFF" stroke="#000000" stroke-width="4" stroke-miterlimit="10" d="M468.212,161.937c0-2.761-2.238-5-5-5H305.277
	c-2.762,0-5,2.239-5,5l0.223,200.922h5h157.936h5L468.212,161.937z"/>
<path fill="#F1F2F7" stroke="#000000" stroke-width="4" stroke-miterlimit="10" d="M453.324,176.213c0-2.761-2.238-5-5-5H320.389
	c-2.763,0-5,2.239-5,5v186.646h5h127.937h5V176.213H453.324z"/>
<line fill="none" stroke="#000000" stroke-width="4" stroke-linecap="round" stroke-miterlimit="10" x1="416" y1="206.398" x2="451" y2="206.398"/>
<line fill="none" stroke="#000000" stroke-width="4" stroke-linecap="round" stroke-miterlimit="10" x1="426" y1="333.398" x2="451" y2="333.398"/>
<line fill="none" stroke="#000000" stroke-width="4" stroke-linecap="round" stroke-miterlimit="10" x1="436" y1="250.398" x2="451" y2="250.398"/>
<line fill="none" stroke="#000000" stroke-width="4" stroke-linecap="round" stroke-miterlimit="10" x1="316" y1="206.398" x2="351" y2="206.398"/>
<line fill="none" stroke="#000000" stroke-width="4" stroke-linecap="round" stroke-miterlimit="10" x1="316" y1="333.398" x2="341" y2="333.398"/>
<line fill="none" stroke="#000000" stroke-width="4" stroke-linecap="round" stroke-miterlimit="10" x1="316" y1="250.398" x2="331" y2="250.398"/>
<line fill="none" stroke="#000000" stroke-width="4" stroke-linecap="round" stroke-miterlimit="10" x1="362" y1="146.236" x2="404" y2="146.236"/>
<line fill="none" stroke="#000000" stroke-width="4" stroke-linecap="round" stroke-miterlimit="10" x1="369.667" y1="131.398" x2="369.667" y2="154.648"/>
<line fill="none" stroke="#000000" stroke-width="4" stroke-linecap="round" stroke-miterlimit="10" x1="396.667" y1="131.398" x2="396.667" y2="154.648"/>
<g>
	<g>
		<path fill="#16B5C1" stroke="#000000" stroke-width="4" stroke-miterlimit="10" d="M369.68,357.895
			c1.805,1.68,4.271,2.587,6.922,2.566l15.871-0.126c2.651-0.02,5.098-0.972,6.885-2.681c1.787-1.7,2.651-3.9,2.438-6.193
			l-7.094-73.421l-20.033,0.158l-7.522,73.54C366.964,354.034,367.861,356.222,369.68,357.895z"/>
	</g>
	<path d="M396.199,222.96c-3.986-4.278-5.828-8.649-5.466-12.997c0.597-7.105,6.888-12.004,6.95-12.049
		c0.734-0.566,0.949-1.58,0.497-2.395c-0.454-0.807-1.431-1.162-2.296-0.824c-0.289,0.111-2.219,0.873-5.034,2.285
		c-8.337,4.184-24.433,14.09-28.468,29.813c-2.805,10.925,0.818,22.537,10.713,34.498c0.154,0.193,0.279,0.379,0.439,0.566
		c0.352,0.42,0.865,0.66,1.407,0.668l1.86,0.014l14.496,0.115l1.861,0.021c0.375,0.001,0.731-0.111,1.043-0.306
		c0.062-0.046,0.375-0.263,0.828-0.601c2.379-1.809,9.146-7.674,10.221-16.713C406.125,237.771,403.082,230.333,396.199,222.96z
		 M370.639,228.88c0.104-0.61,0.485-1.106,1.001-1.364c0.341-0.173,0.734-0.24,1.137-0.173c1.016,0.171,1.704,1.13,1.538,2.146
		c-2.114,12.854,3.687,17.449,3.742,17.486c0.815,0.629,0.978,1.803,0.346,2.616c-0.618,0.813-1.791,0.974-2.608,0.347
		C375.481,249.699,368.167,243.923,370.639,228.88z"/>
	<path fill="#16B5C1" d="M371.64,227.516c-0.516,0.258-0.896,0.754-1.001,1.364c-2.472,15.043,4.843,20.818,5.153,21.058
		c0.818,0.627,1.99,0.469,2.609-0.347c0.631-0.813,0.471-1.987-0.346-2.616c-0.057-0.037-5.857-4.632-3.742-17.486
		c0.166-1.016-0.521-1.975-1.538-2.146C372.375,227.275,371.98,227.343,371.64,227.516z"/>
	
		<line fill="none" stroke="#000000" stroke-width="4" stroke-linecap="round" stroke-miterlimit="10" x1="389" y1="312.731" x2="391.964" y2="347.898"/>
	
		<rect x="374.75" y="262.064" fill="#FFFFFF" stroke="#000000" stroke-width="4" stroke-miterlimit="10" width="19.75" height="16.666"/>
</g>
<path fill="none" stroke="#000000" stroke-width="4" stroke-linecap="round" stroke-miterlimit="10" d="M90.795,314.953
	c0,0-19.298,5.869-35.842,1.357l-28.615-14.007c0,0-3.917-1.167-5.917,2s-2.667,5.749,2.75,9.333s27.75,17.25,30.25,18.25
	s14.75,4.75,27,1.167s20.417-9.999,26.5-10.583s8.5-0.584,8.5-0.584"/>
<path fill="none" stroke="#000000" stroke-width="4" stroke-linecap="round" stroke-miterlimit="10" d="M112.914,291.51
	c0,0-15.666-1-19.083,0.75s-14.083,9.833-17.25,10.833s-14.75,0.084-17.917,1.417s-5.169,2.047-5.169,2.047"/>
<path fill="#FFFFFF" stroke="#000000" stroke-width="4" stroke-miterlimit="10" d="M299.892,33.475c0-2.761-2.238-5-5-5H136.956
	c-2.761,0-5,2.239-5,5l0.223,329.923h5h157.936h5L299.892,33.475z"/>
<path fill="none" stroke="#000000" stroke-width="4" stroke-miterlimit="10" d="M285.003,47.751c0-2.761-2.238-5-5-5H152.067
	c-2.761,0-5,2.239-5,5v315.646h5h127.936h5V47.751z"/>
<g>
	<rect x="167" y="269.398" fill="#F1F2F7" stroke="#000000" stroke-width="4" stroke-miterlimit="10" width="50" height="94"/>
	<rect x="216" y="269.398" fill="#F1F2F7" stroke="#000000" stroke-width="4" stroke-miterlimit="10" width="50" height="94"/>
</g>
<g>
	<rect x="167" y="125.398" fill="#F1F2F7" stroke="#000000" stroke-width="4" stroke-miterlimit="10" width="22" height="40"/>
	<rect x="189" y="125.398" fill="#F1F2F7" stroke="#000000" stroke-width="4" stroke-miterlimit="10" width="22" height="40"/>
	<rect x="222" y="125.398" fill="#F1F2F7" stroke="#000000" stroke-width="4" stroke-miterlimit="10" width="22" height="40"/>
	<rect x="244" y="125.398" fill="#F1F2F7" stroke="#000000" stroke-width="4" stroke-miterlimit="10" width="22" height="40"/>
</g>
<g>
	<rect x="167" y="194.398" fill="#F1F2F7" stroke="#000000" stroke-width="4" stroke-miterlimit="10" width="22" height="40"/>
	<rect x="189" y="194.398" fill="#F1F2F7" stroke="#000000" stroke-width="4" stroke-miterlimit="10" width="22" height="40"/>
	<rect x="222" y="194.398" fill="#F1F2F7" stroke="#000000" stroke-width="4" stroke-miterlimit="10" width="22" height="40"/>
	<rect x="244" y="194.398" fill="#F1F2F7" stroke="#000000" stroke-width="4" stroke-miterlimit="10" width="22" height="40"/>
</g>
<g>
	
		<line fill="none" stroke="#000000" stroke-width="4" stroke-linecap="round" stroke-miterlimit="10" x1="147.067" y1="110.398" x2="221.345" y2="110.398"/>
	
		<line fill="none" stroke="#000000" stroke-width="4" stroke-linecap="round" stroke-miterlimit="10" x1="233.345" y1="110.398" x2="285.003" y2="110.398"/>
</g>
<g>
	
		<line fill="none" stroke="#000000" stroke-width="4" stroke-linecap="round" stroke-miterlimit="10" x1="147.389" y1="179.398" x2="175.333" y2="179.398"/>
	
		<line fill="none" stroke="#000000" stroke-width="4" stroke-linecap="round" stroke-miterlimit="10" x1="183.527" y1="179.398" x2="284.324" y2="179.398"/>
</g>
<g>
	
		<line fill="none" stroke="#000000" stroke-width="4" stroke-linecap="round" stroke-miterlimit="10" x1="147.067" y1="248.398" x2="216.035" y2="248.398"/>
	
		<line fill="none" stroke="#000000" stroke-width="4" stroke-linecap="round" stroke-miterlimit="10" x1="243.345" y1="248.398" x2="285.003" y2="248.398"/>
</g>
<polyline fill="none" stroke="#000000" stroke-width="4" stroke-linecap="round" stroke-miterlimit="10" points="54.036,229.835 
	62.574,236.494 62.574,250.322 "/>
<line fill="none" stroke="#000000" stroke-width="4" stroke-linecap="round" stroke-miterlimit="10" x1="71.37" y1="223.699" x2="63.075" y2="235.975"/>
<line fill="none" stroke="#000000" stroke-width="4" stroke-linecap="round" stroke-miterlimit="10" x1="67.222" y1="270.43" x2="77.646" y2="270.43"/>
<path fill="#231F20" d="M245.333,89.154h-4.613c-0.065,0-0.123,0.065-0.123,0.131v1.956c0,0.074,0.058,0.129,0.123,0.129h2.514
	l0.004,1.568c-0.088,0.113-0.35,0.249-0.35,0.249c-0.268,0.138-0.552,0.267-0.851,0.356c-0.808,0.217-1.805,0.162-2.508-0.146
	c-0.156-0.067-0.301-0.148-0.442-0.232c-0.016-0.01-0.031-0.02-0.047-0.029c-0.063-0.039-0.125-0.08-0.186-0.123
	c-0.022-0.015-0.043-0.032-0.066-0.049c-0.055-0.041-0.108-0.081-0.16-0.125c-0.076-0.063-0.148-0.128-0.218-0.197
	c-0.001-0.001-0.003-0.003-0.005-0.003c-0.005-0.005-0.008-0.01-0.013-0.014c-0.695-0.688-1.129-1.656-1.129-2.731
	c0-1.022,0.393-1.949,1.03-2.629h0.013c0.033-0.037,0.066-0.073,0.099-0.106c0.325-0.323,0.698-0.583,1.124-0.77
	c0.834-0.355,1.824-0.396,2.763,0.039c0.468,0.211,0.899,0.518,1.311,0.891c0.039,0.049,0.118,0.049,0.158,0l1.611-1.674
	c0.041-0.048,0.041-0.128-0.007-0.17c-0.623-0.633-1.327-1.114-2.088-1.441c-1.506-0.654-3.156-0.654-4.646-0.066
	c-0.718,0.294-1.385,0.698-1.94,1.231c-0.086,0.083-0.167,0.174-0.249,0.262h-0.005c-0.021,0.024-0.042,0.047-0.063,0.071
	c-0.043,0.047-0.086,0.094-0.128,0.143c-0.112,0.13-0.217,0.267-0.318,0.407c-0.004,0.005-0.008,0.009-0.01,0.015
	c-0.763,1.061-1.217,2.374-1.217,3.798c0,1.103,0.274,2.137,0.75,3.041c0.005,0.008,0.009,0.017,0.013,0.025
	c0.031,0.056,0.058,0.113,0.089,0.169c0.245,0.446,0.542,0.857,0.893,1.229c0.361,0.381,0.776,0.707,1.234,0.991
	c0.02,0.013,0.042,0.028,0.063,0.041c0.116,0.07,0.235,0.135,0.356,0.199c0.015,0.008,0.028,0.016,0.044,0.024
	c0.077,0.041,0.151,0.083,0.229,0.121c0.759,0.339,1.76,0.518,2.686,0.518c0.843,0,1.626-0.154,2.322-0.462
	c0.704-0.296,1.374-0.752,2.031-1.327c0.023-0.022,0.038-0.064,0.038-0.095v-5.085C245.451,89.219,245.396,89.154,245.333,89.154"/>
<path fill="#231F20" d="M214.887,67.53h-8.827c-0.074,0-0.122,0.056-0.122,0.123v2.337c0,0.074,0.048,0.122,0.122,0.122h3.14v9.321
	c0,0.07,0.054,0.12,0.121,0.12h2.339c0.061,0,0.12-0.05,0.12-0.12v-9.321h3.107c0.072,0,0.12-0.048,0.12-0.122v-2.337
	C215.007,67.585,214.959,67.53,214.887,67.53"/>
<path fill="#231F20" d="M226.353,67.53h-2.346c-0.064,0-0.115,0.056-0.115,0.123v4.586h-4.434v-4.586
	c0-0.067-0.056-0.123-0.129-0.123h-2.322c-0.055,0-0.119,0.056-0.119,0.123v11.78c0,0.07,0.064,0.12,0.119,0.12h2.322
	c0.073,0,0.129-0.05,0.129-0.12V74.84h4.434v4.592c0,0.07,0.051,0.12,0.115,0.12h2.346c0.064,0,0.12-0.05,0.12-0.12v-11.78
	C226.473,67.585,226.417,67.53,226.353,67.53"/>
<path fill="#231F20" d="M230.991,67.53h-2.319c-0.064,0-0.122,0.056-0.122,0.123v11.78c0,0.07,0.058,0.12,0.122,0.12h2.319
	c0.075,0,0.122-0.05,0.122-0.12v-11.78C231.113,67.585,231.066,67.53,230.991,67.53"/>
<path fill="#231F20" d="M239.822,74.643c0.573-0.301,1.05-0.729,1.408-1.287c0.396-0.608,0.589-1.303,0.589-2.063
	c0-0.527-0.092-1.011-0.305-1.467c-0.195-0.453-0.469-0.849-0.81-1.195c-0.339-0.332-0.736-0.599-1.19-0.799
	c-0.455-0.196-0.931-0.301-1.448-0.301H233.3c-0.056,0-0.112,0.056-0.112,0.122v11.78c0,0.07,0.056,0.119,0.112,0.119h2.33
	c0.06,0,0.123-0.049,0.123-0.119v-4.371h1.229l3.159,4.44c0.023,0.025,0.065,0.049,0.106,0.049h2.855
	c0.045,0,0.088-0.024,0.113-0.064c0.014-0.047,0.008-0.087-0.018-0.128L239.822,74.643z M238.858,72.131
	c-0.258,0.235-0.668,0.365-1.23,0.365h-1.875v-2.385h1.875c0.567,0,0.972,0.129,1.23,0.356c0.262,0.226,0.391,0.493,0.391,0.825
	C239.249,71.617,239.12,71.884,238.858,72.131"/>
<path fill="#231F20" d="M214.027,90.146c-0.299-0.31-0.689-0.606-1.156-0.874c-0.468-0.262-1.058-0.544-1.747-0.802
	c-0.227-0.083-0.458-0.166-0.669-0.247c-0.205-0.099-0.393-0.187-0.55-0.294c-0.156-0.093-0.267-0.204-0.358-0.331
	c-0.08-0.112-0.121-0.217-0.121-0.35c0-0.329,0.111-0.549,0.349-0.722c0.249-0.172,0.593-0.254,1.042-0.254
	c0.243,0,0.491,0.048,0.728,0.133c0.237,0.089,0.46,0.177,0.643,0.279c0.115,0.064,0.193,0.109,0.437,0.256
	c0.103,0.062,0.251,0.02,0.317-0.067l1.547-1.553c0.047-0.042,0.056-0.192-0.03-0.266c-0.201-0.176-0.448-0.355-0.746-0.518
	c-0.293-0.17-0.615-0.317-0.949-0.438c-0.326-0.126-0.677-0.23-1.025-0.314c-0.362-0.082-0.695-0.122-1.009-0.122
	c-0.578,0-1.119,0.079-1.601,0.269c-0.483,0.181-0.904,0.436-1.256,0.762c-0.341,0.319-0.613,0.706-0.802,1.148
	c-0.177,0.443-0.277,0.916-0.277,1.417c0,0.49,0.089,0.926,0.263,1.308c0.164,0.38,0.41,0.716,0.718,1.007
	c0.313,0.298,0.673,0.552,1.09,0.756c0.419,0.218,0.868,0.417,1.344,0.605c0.409,0.154,0.744,0.311,1.013,0.436
	c0.257,0.147,0.468,0.276,0.617,0.392c0.137,0.116,0.237,0.229,0.293,0.32c0.042,0.089,0.076,0.163,0.076,0.236
	c0,0.213-0.042,0.383-0.132,0.526c-0.091,0.137-0.213,0.254-0.354,0.351c-0.146,0.081-0.319,0.149-0.492,0.189
	c-0.383,0.098-0.792,0.098-1.219-0.066c-0.246-0.083-0.483-0.197-0.703-0.319c-0.212-0.123-0.42-0.263-0.58-0.395
	c-0.173-0.141-0.514-0.458-0.588-0.558c-0.018-0.023-0.05-0.043-0.091-0.043c-0.023-0.006-0.063,0.01-0.087,0.035l-1.691,1.689
	c-0.057,0.047-0.057,0.129-0.01,0.172c0.091,0.106,0.402,0.419,0.639,0.655c0.229,0.211,0.49,0.425,0.784,0.614
	c0.011,0.007,0.021,0.019,0.036,0.024c0.432,0.288,0.915,0.501,1.409,0.641c0.497,0.152,1.022,0.228,1.547,0.228
	c0.597,0,1.155-0.1,1.654-0.289c0.508-0.188,0.948-0.458,1.317-0.785c0.368-0.335,0.664-0.736,0.868-1.188
	c0.225-0.455,0.32-0.956,0.32-1.466c0-0.415-0.057-0.816-0.182-1.175C214.527,90.802,214.321,90.459,214.027,90.146"/>
<path fill="#231F20" d="M224.558,86.317V83.98c0-0.066-0.044-0.122-0.113-0.122h-8.833c-0.066,0-0.122,0.056-0.122,0.122v2.337
	c0,0.073,0.056,0.122,0.122,0.122h3.141v9.321c0,0.069,0.054,0.119,0.12,0.119h2.338c0.072,0,0.121-0.05,0.121-0.119v-9.321h3.113
	C224.513,86.439,224.558,86.391,224.558,86.317"/>
<path fill="#231F20" d="M252.739,69.204c-0.502-0.522-1.116-0.946-1.828-1.227c-0.715-0.301-1.53-0.447-2.412-0.447h-4.084
	c-0.074,0-0.125,0.056-0.125,0.123v11.78c0,0.07,0.052,0.12,0.125,0.12h4.084c0.688,0,1.327-0.088,1.91-0.283l3.567-3.559
	c0.228-0.666,0.349-1.384,0.349-2.153c0-0.882-0.137-1.7-0.414-2.437C253.635,70.393,253.24,69.74,252.739,69.204 M251.502,74.907
	c-0.163,0.417-0.396,0.778-0.687,1.085c-0.295,0.31-0.636,0.549-1.031,0.722c-0.388,0.167-0.822,0.256-1.285,0.256h-1.649v-6.836
	h1.649c0.463,0,0.897,0.082,1.285,0.258c0.396,0.186,0.736,0.43,1.031,0.738c0.29,0.305,0.523,0.67,0.687,1.081
	c0.155,0.416,0.245,0.868,0.245,1.346C251.747,74.042,251.657,74.496,251.502,74.907"/>
<path fill="#231F20" d="M255.961,93.29h-6.075v-2.32h4.352c0.066,0,0.122-0.045,0.122-0.121v-1.976c0-0.064-0.056-0.122-0.122-0.122
	h-4.352v-2.32h5.05c0.07,0,0.127-0.05,0.127-0.123v-2.337c0-0.066-0.057-0.122-0.127-0.122h-7.518c-0.064,0-0.111,0.056-0.111,0.122
	v11.78c0,0.07,0.047,0.12,0.111,0.12h6.204l2.459-2.461C256.081,93.34,256.025,93.29,255.961,93.29"/>
<path fill="#231F20" d="M234.967,95.701l-5.174-11.79c-0.006-0.042-0.055-0.075-0.105-0.075h-0.995c-0.047,0-0.09,0.033-0.111,0.075
	l-5.076,11.79c-0.009,0.041-0.009,0.083,0.016,0.12c0.025,0.025,0.064,0.05,0.104,0.05h2.556c0.05,0,0.091-0.031,0.115-0.072
	c0.137-0.338,2.909-6.966,2.909-6.966l2.965,6.966c0.024,0.042,0.062,0.072,0.111,0.072h2.565c0.045,0,0.088-0.025,0.112-0.05
	C234.981,95.784,234.981,95.742,234.967,95.701"/>
<rect x="226.555" y="91.499" fill="#231F20" width="5.289" height="2.217"/>
<path fill="#231F20" d="M177.621,62.172h7.553l-5.679,5.677c-0.033,0.034-0.054,0.08-0.054,0.136c0,0.05,0.021,0.1,0.054,0.136
	l4.374,4.36l0.013,0.013c0.04,0.033,0.085,0.055,0.139,0.055c0.046,0,0.094-0.021,0.132-0.055l13.495-13.497
	c0.01-0.012,0.018-0.018,0.027-0.039c0.155-0.247,0.641-1.138,0.176-2.059c-0.45-0.905-1.543-0.98-1.87-0.98
	c-0.055,0-0.089,0-0.106,0.004h-18.253c-0.109,0-0.195,0.084-0.195,0.195v5.868C177.426,62.086,177.511,62.172,177.621,62.172"/>
<path fill="#231F20" d="M200.139,78.683c0.224-0.743,0.271-1.633,0.271-2.251c0-2.502-0.751-4.917-2.174-6.964
	c-1.394-2.006-3.322-3.537-5.582-4.425c-0.072-0.03-0.15-0.012-0.206,0.038l-5.481,5.475c-0.053,0.059-0.073,0.156-0.028,0.228
	c0.038,0.077,0.119,0.115,0.2,0.098c0.34-0.058,0.683-0.092,1.024-0.092c3.116,0,5.646,2.536,5.646,5.643s-2.53,5.641-5.646,5.641
	c-3.112,0-5.645-2.534-5.645-5.641c0-0.101,0.004-0.198,0.012-0.303c0-0.051-0.021-0.106-0.055-0.143
	c-0.034-0.04-0.083-0.063-0.14-0.063h-6.221c-0.106,0-0.191,0.085-0.191,0.188v0.095c-0.004,0.074-0.004,0.156-0.004,0.226
	c0,6.751,5.494,12.244,12.244,12.244h0.058c0.722,0,1.537,0,2.33-0.315c0.173-0.068,0.566-0.386,1.061-0.823l7.456-7.46
	C199.641,79.43,200.076,78.896,200.139,78.683"/>
</svg>