<?xml version="1.0" encoding="utf-8"?>
<!-- Generator: Adobe Illustrator 16.0.0, SVG Export Plug-In . SVG Version: 6.00 Build 0)  -->
<!DOCTYPE svg PUBLIC "-//W3C//DTD SVG 1.1//EN" "http://www.w3.org/Graphics/SVG/1.1/DTD/svg11.dtd">
<svg version="1.1" id="Layer_1" xmlns="http://www.w3.org/2000/svg" xmlns:xlink="http://www.w3.org/1999/xlink" x="0px" y="0px"
	 width="24px" height="24px" viewBox="113 113 24 24" enable-background="new 113 113 24 24" xml:space="preserve">
<g>
	<path id="Combined-Shape_1_" fill="#221F1F" d="M129.042,115h-8.084c-3.285,0-5.958,2.673-5.958,5.958v8.084
		c0,3.285,2.673,5.958,5.958,5.958h8.084c3.285,0,5.958-2.673,5.958-5.958v-8.084C135,117.673,132.327,115,129.042,115z
		 M132.988,129.042c0,2.179-1.768,3.946-3.946,3.946h-8.084c-2.179,0-3.946-1.768-3.946-3.946v-8.084
		c0-2.179,1.767-3.946,3.946-3.946h8.084c2.179,0,3.946,1.767,3.946,3.946V129.042L132.988,129.042z M125,119.827
		c2.852,0,5.173,2.321,5.173,5.173c0,2.852-2.321,5.173-5.173,5.173c-2.852,0-5.173-2.321-5.173-5.173
		C119.827,122.148,122.148,119.827,125,119.827z M125,128.16c1.746,0,3.16-1.414,3.16-3.16c0-1.746-1.414-3.161-3.16-3.161
		c-1.746,0-3.161,1.415-3.161,3.161C121.839,126.746,123.254,128.16,125,128.16z M130.183,121.105c-0.685,0-1.239-0.555-1.239-1.239
		s0.555-1.239,1.239-1.239s1.239,0.555,1.239,1.239S130.867,121.105,130.183,121.105z"/>
</g>
</svg>
