<?xml version="1.0" encoding="utf-8"?>
<!-- Generator: Adobe Illustrator 16.0.0, SVG Export Plug-In . SVG Version: 6.00 Build 0)  -->
<!DOCTYPE svg PUBLIC "-//W3C//DTD SVG 1.1//EN" "http://www.w3.org/Graphics/SVG/1.1/DTD/svg11.dtd">
<svg version="1.1" id="暠꿔_1" xmlns="http://www.w3.org/2000/svg" xmlns:xlink="http://www.w3.org/1999/xlink" x="0px" y="0px"
	 width="20px" height="20px" viewBox="0 0 20 20" enable-background="new 0 0 20 20" xml:space="preserve">
<g>
	<path fill="#FFFFFF" d="M18.519,1.482c-0.956-0.955-2.233-1.481-3.599-1.481c-1.385,0-2.686,0.539-3.664,1.518l-1.381,1.38
		C8.362,4.412,7.979,6.63,8.729,8.484l1.993-1.993c0.018-0.694,0.292-1.388,0.825-1.921l1.381-1.38
		c0.531-0.532,1.239-0.825,1.992-0.825c0.733,0,1.418,0.28,1.926,0.789c0.514,0.514,0.794,1.204,0.789,1.945
		c-0.004,0.746-0.297,1.446-0.824,1.974l-1.381,1.38c-0.514,0.515-1.192,0.803-1.918,0.821l-1.996,1.997
		c0.602,0.243,1.251,0.371,1.922,0.371c1.385,0,2.686-0.538,3.665-1.517l1.38-1.381C19.452,7.776,19.99,6.486,20,5.114
		C20.008,3.736,19.482,2.446,18.519,1.482z"/>
	<path fill="#FFFFFF" d="M9.28,13.507c-0.017,0.694-0.292,1.389-0.826,1.922l-1.38,1.381c-0.532,0.532-1.239,0.824-1.992,0.824
		c-0.733,0-1.417-0.28-1.926-0.788c-1.07-1.071-1.054-2.829,0.036-3.92l1.38-1.38c0.514-0.514,1.192-0.802,1.916-0.82l1.998-1.998
		c-0.601-0.242-1.25-0.371-1.921-0.371c-1.385,0-2.686,0.539-3.665,1.518l-1.38,1.38c-2.012,2.013-2.028,5.271-0.036,7.264
		c0.956,0.955,2.233,1.481,3.599,1.481c1.384,0,2.686-0.539,3.665-1.518l1.38-1.38c1.514-1.514,1.896-3.733,1.146-5.587L9.28,13.507
		z"/>
	<path fill="#FFFFFF" d="M6.731,13.27c0.231,0.23,0.534,0.346,0.836,0.346c0.303,0,0.605-0.115,0.836-0.346l4.868-4.868
		c0.462-0.462,0.462-1.21,0-1.672s-1.21-0.462-1.672,0l-4.868,4.868C6.27,12.059,6.27,12.808,6.731,13.27z"/>
</g>
</svg>
