<?xml version="1.0" encoding="utf-8"?>
<!-- Generator: Adobe Illustrator 16.0.0, SVG Export Plug-In . SVG Version: 6.00 Build 0)  -->
<!DOCTYPE svg PUBLIC "-//W3C//DTD SVG 1.1//EN" "http://www.w3.org/Graphics/SVG/1.1/DTD/svg11.dtd">
<svg version="1.1" id="Layer_1" xmlns="http://www.w3.org/2000/svg" xmlns:xlink="http://www.w3.org/1999/xlink" x="0px" y="0px"
	 width="29px" height="25px" viewBox="0 0 29 25" enable-background="new 0 0 29 25" xml:space="preserve">
<g>
	<path fill="#CDCED2" d="M12.354,4.586c-4.16,2.275-6.306,5.005-6.37,9.23c0.26-0.064,0.455-0.064,0.715-0.064
		c2.795,0,5.2,1.885,5.2,5.005c0,3.38-2.21,5.46-5.2,5.46c-4.16,0-6.305-3.25-6.305-8.775c0-6.695,3.25-11.7,9.75-15.08
		L12.354,4.586z M28.605,4.586c-4.16,2.275-6.306,5.005-6.371,9.23c0.261-0.064,0.455-0.064,0.716-0.064
		c2.795,0,5.2,1.885,5.2,5.005c0,3.38-2.211,5.46-5.2,5.46c-4.16,0-6.306-3.25-6.306-8.775c0-6.695,3.25-11.7,9.75-15.08
		L28.605,4.586z"/>
</g>
</svg>
