<?xml version="1.0" encoding="utf-8"?>
<!-- Generator: Adobe Illustrator 16.0.0, SVG Export Plug-In . SVG Version: 6.00 Build 0)  -->
<!DOCTYPE svg PUBLIC "-//W3C//DTD SVG 1.1//EN" "http://www.w3.org/Graphics/SVG/1.1/DTD/svg11.dtd">
<svg version="1.1" id="Layer_1" xmlns="http://www.w3.org/2000/svg" xmlns:xlink="http://www.w3.org/1999/xlink" x="0px" y="0px"
	 width="102px" height="51px" viewBox="0 0 102 51" enable-background="new 0 0 102 51" xml:space="preserve">
<path fill="#FFFFFF" d="M87.703,41.928h-5.73c-0.08,0-0.153,0.08-0.153,0.163v2.43c0,0.092,0.073,0.161,0.153,0.161h3.123
	l0.007,1.948c-0.11,0.141-0.437,0.309-0.437,0.309c-0.332,0.172-0.686,0.332-1.056,0.443c-1.004,0.27-2.243,0.201-3.116-0.182
	c-0.193-0.084-0.374-0.184-0.549-0.288c-0.02-0.013-0.039-0.024-0.059-0.036c-0.078-0.049-0.155-0.1-0.23-0.153
	c-0.027-0.019-0.055-0.04-0.082-0.061c-0.068-0.051-0.135-0.101-0.199-0.154c-0.094-0.078-0.184-0.16-0.271-0.245
	c-0.001-0.002-0.004-0.004-0.006-0.005c-0.006-0.006-0.01-0.012-0.016-0.017c-0.863-0.854-1.402-2.058-1.402-3.394
	c0-1.271,0.488-2.422,1.279-3.267h0.016c0.041-0.046,0.082-0.091,0.123-0.132c0.404-0.401,0.867-0.725,1.396-0.956
	c1.036-0.441,2.266-0.492,3.432,0.049c0.582,0.263,1.117,0.644,1.629,1.106c0.049,0.061,0.146,0.061,0.197,0l2.002-2.08
	c0.051-0.06,0.051-0.159-0.009-0.211c-0.774-0.786-1.649-1.385-2.594-1.791c-1.871-0.813-3.922-0.813-5.772-0.082
	c-0.893,0.365-1.722,0.868-2.41,1.53c-0.107,0.104-0.207,0.216-0.31,0.326h-0.006c-0.026,0.029-0.052,0.059-0.078,0.088
	c-0.053,0.059-0.106,0.117-0.159,0.178c-0.139,0.162-0.27,0.331-0.396,0.506c-0.005,0.006-0.009,0.012-0.013,0.018
	c-0.947,1.318-1.512,2.949-1.512,4.72c0,1.37,0.34,2.655,0.932,3.778c0.006,0.01,0.011,0.021,0.016,0.031
	c0.038,0.069,0.072,0.141,0.111,0.21c0.304,0.554,0.673,1.064,1.109,1.526c0.448,0.474,0.965,0.878,1.533,1.231
	c0.025,0.016,0.053,0.035,0.079,0.051c0.144,0.087,0.292,0.168,0.442,0.248c0.019,0.009,0.035,0.019,0.055,0.029
	c0.095,0.05,0.188,0.104,0.285,0.15c0.943,0.421,2.187,0.644,3.336,0.644c1.047,0,2.02-0.191,2.886-0.574
	c0.875-0.368,1.706-0.935,2.522-1.648c0.029-0.028,0.047-0.08,0.047-0.117v-6.318C87.85,42.008,87.781,41.928,87.703,41.928"/>
<path fill="#FFFFFF" d="M49.877,15.062H38.911c-0.092,0-0.152,0.069-0.152,0.152v2.903c0,0.092,0.06,0.151,0.152,0.151h3.901v11.58
	c0,0.087,0.067,0.149,0.149,0.149h2.906c0.076,0,0.15-0.063,0.15-0.149v-11.58h3.861c0.089,0,0.149-0.06,0.149-0.151v-2.903
	C50.026,15.131,49.967,15.062,49.877,15.062"/>
<path fill="#FFFFFF" d="M64.123,15.062h-2.914c-0.08,0-0.144,0.069-0.144,0.152v5.698h-5.509v-5.698c0-0.083-0.069-0.152-0.16-0.152
	h-2.885c-0.068,0-0.148,0.069-0.148,0.152v14.635c0,0.087,0.08,0.149,0.148,0.149h2.885c0.091,0,0.16-0.063,0.16-0.149v-5.704h5.509
	v5.704c0,0.087,0.063,0.149,0.144,0.149h2.914c0.08,0,0.149-0.063,0.149-0.149V15.214C64.272,15.131,64.203,15.062,64.123,15.062"/>
<path fill="#FFFFFF" d="M69.885,15.062h-2.882c-0.08,0-0.151,0.069-0.151,0.152v14.635c0,0.087,0.071,0.149,0.151,0.149h2.882
	c0.094,0,0.151-0.063,0.151-0.149V15.214C70.036,15.131,69.979,15.062,69.885,15.062"/>
<path fill="#FFFFFF" d="M80.857,23.898c0.712-0.374,1.305-0.906,1.748-1.599c0.492-0.756,0.732-1.619,0.732-2.563
	c0-0.655-0.115-1.256-0.379-1.822c-0.242-0.563-0.582-1.055-1.006-1.484c-0.421-0.412-0.914-0.744-1.479-0.993
	c-0.564-0.243-1.156-0.374-1.799-0.374h-5.922c-0.069,0-0.139,0.069-0.139,0.151v14.635c0,0.087,0.069,0.148,0.139,0.148h2.895
	c0.074,0,0.152-0.062,0.152-0.148v-5.43h1.526l3.925,5.517c0.028,0.031,0.08,0.062,0.131,0.062h3.547c0.057,0,0.109-0.03,0.141-0.08
	c0.018-0.058,0.01-0.108-0.021-0.159L80.857,23.898z M79.659,20.778c-0.321,0.292-0.831,0.454-1.528,0.454h-2.33v-2.964h2.33
	c0.705,0,1.207,0.161,1.528,0.443c0.325,0.28,0.485,0.612,0.485,1.024C80.145,20.14,79.984,20.472,79.659,20.778"/>
<path fill="#FFFFFF" d="M48.809,43.16c-0.372-0.385-0.856-0.753-1.436-1.086c-0.581-0.325-1.314-0.676-2.17-0.996
	c-0.282-0.104-0.568-0.206-0.832-0.307c-0.254-0.122-0.489-0.232-0.683-0.365c-0.194-0.115-0.333-0.253-0.446-0.41
	c-0.099-0.14-0.151-0.271-0.151-0.435c0-0.408,0.14-0.683,0.435-0.897c0.309-0.214,0.735-0.315,1.294-0.315
	c0.302,0,0.61,0.061,0.904,0.165c0.295,0.111,0.573,0.22,0.799,0.347c0.143,0.08,0.24,0.135,0.543,0.317
	c0.128,0.077,0.313,0.025,0.395-0.083l1.921-1.929c0.059-0.052,0.07-0.239-0.037-0.331c-0.25-0.218-0.556-0.44-0.926-0.644
	c-0.365-0.211-0.764-0.394-1.179-0.545c-0.405-0.156-0.842-0.286-1.273-0.39c-0.449-0.102-0.863-0.151-1.253-0.151
	c-0.719,0-1.391,0.099-1.99,0.334c-0.6,0.225-1.123,0.541-1.56,0.946c-0.424,0.396-0.762,0.877-0.996,1.427
	c-0.221,0.55-0.345,1.138-0.345,1.76c0,0.609,0.111,1.15,0.327,1.625c0.203,0.472,0.509,0.889,0.892,1.251
	c0.39,0.37,0.836,0.686,1.355,0.938c0.52,0.271,1.077,0.518,1.67,0.752c0.507,0.191,0.924,0.386,1.258,0.541
	c0.32,0.183,0.581,0.343,0.766,0.486c0.171,0.145,0.295,0.284,0.365,0.397c0.052,0.11,0.095,0.202,0.095,0.293
	c0,0.265-0.052,0.477-0.165,0.653c-0.113,0.171-0.264,0.315-0.439,0.437c-0.181,0.101-0.397,0.186-0.611,0.235
	c-0.476,0.121-0.985,0.121-1.515-0.082c-0.306-0.104-0.601-0.245-0.874-0.396c-0.264-0.152-0.521-0.327-0.721-0.49
	c-0.214-0.175-0.638-0.569-0.73-0.693c-0.021-0.029-0.063-0.054-0.113-0.054c-0.029-0.008-0.079,0.013-0.108,0.043l-2.101,2.099
	c-0.07,0.058-0.07,0.16-0.012,0.214c0.113,0.133,0.499,0.521,0.794,0.814c0.284,0.263,0.609,0.528,0.974,0.763
	c0.013,0.009,0.025,0.023,0.045,0.03c0.536,0.357,1.136,0.622,1.749,0.796c0.617,0.188,1.271,0.283,1.922,0.283
	c0.742,0,1.436-0.124,2.056-0.358c0.631-0.234,1.178-0.568,1.636-0.976c0.457-0.417,0.825-0.915,1.079-1.477
	c0.278-0.565,0.397-1.188,0.397-1.821c0-0.516-0.07-1.014-0.225-1.46C49.429,43.975,49.174,43.549,48.809,43.16"/>
<path fill="#FFFFFF" d="M61.893,38.403V35.5c0-0.082-0.056-0.151-0.141-0.151H50.778c-0.082,0-0.151,0.069-0.151,0.151v2.903
	c0,0.091,0.069,0.151,0.151,0.151h3.901v11.58c0,0.087,0.067,0.148,0.149,0.148h2.905c0.09,0,0.15-0.062,0.15-0.148v-11.58h3.867
	C61.837,38.555,61.893,38.494,61.893,38.403"/>
<path fill="#FFFFFF" d="M96.905,17.142c-0.624-0.649-1.388-1.176-2.272-1.524c-0.887-0.374-1.9-0.556-2.996-0.556h-5.073
	c-0.093,0-0.156,0.069-0.156,0.152v14.635c0,0.087,0.063,0.149,0.156,0.149h5.073c0.855,0,1.648-0.109,2.373-0.351l4.432-4.422
	c0.283-0.827,0.434-1.719,0.434-2.675c0-1.095-0.17-2.111-0.514-3.026C98.019,18.619,97.528,17.808,96.905,17.142 M95.367,24.228
	c-0.201,0.518-0.492,0.967-0.854,1.349c-0.365,0.385-0.788,0.683-1.278,0.896c-0.483,0.207-1.024,0.318-1.599,0.318h-2.049v-8.493
	h2.049c0.574,0,1.115,0.102,1.599,0.321c0.49,0.23,0.913,0.533,1.278,0.917c0.361,0.379,0.652,0.833,0.854,1.343
	c0.193,0.517,0.305,1.078,0.305,1.672C95.672,23.152,95.561,23.716,95.367,24.228"/>
<path fill="#FFFFFF" d="M100.908,47.066h-7.549v-2.883h5.407c0.081,0,0.151-0.056,0.151-0.149v-2.455c0-0.08-0.07-0.151-0.151-0.151
	h-5.407v-2.883h6.273c0.088,0,0.158-0.062,0.158-0.152v-2.903c0-0.082-0.07-0.151-0.158-0.151h-9.34
	c-0.08,0-0.139,0.069-0.139,0.151v14.635c0,0.087,0.059,0.149,0.139,0.149h7.709l3.056-3.058
	C101.058,47.129,100.988,47.066,100.908,47.066"/>
<path fill="#FFFFFF" d="M74.825,50.062l-6.429-14.647c-0.008-0.052-0.068-0.093-0.131-0.093h-1.236
	c-0.059,0-0.111,0.041-0.139,0.093l-6.307,14.647c-0.011,0.051-0.011,0.104,0.02,0.149c0.031,0.031,0.08,0.063,0.129,0.063h3.176
	c0.063,0,0.113-0.038,0.143-0.09c0.17-0.42,3.613-8.655,3.613-8.655l3.684,8.655c0.03,0.052,0.077,0.09,0.139,0.09h3.188
	c0.057,0,0.109-0.031,0.139-0.063C74.843,50.165,74.843,50.112,74.825,50.062"/>
<rect x="64.374" y="44.841" fill="#FFFFFF" width="6.571" height="2.755"/>
<path fill="#FFFFFF" d="M3.578,8.405h9.383l-7.054,7.054c-0.041,0.042-0.068,0.099-0.068,0.169c0,0.062,0.027,0.124,0.068,0.168
	l5.433,5.417l0.016,0.016c0.049,0.041,0.105,0.068,0.173,0.068c0.058,0,0.117-0.027,0.164-0.068L28.459,4.46
	c0.012-0.015,0.022-0.022,0.032-0.049c0.193-0.307,0.798-1.413,0.22-2.558c-0.56-1.124-1.918-1.218-2.324-1.218
	c-0.068,0-0.11,0-0.131,0.006H3.578c-0.136,0-0.242,0.104-0.242,0.242v7.29C3.335,8.298,3.441,8.405,3.578,8.405"/>
<path fill="#FFFFFF" d="M31.555,28.918c0.278-0.923,0.336-2.029,0.336-2.797c0-3.108-0.933-6.109-2.702-8.652
	c-1.731-2.492-4.127-4.395-6.934-5.497c-0.089-0.038-0.187-0.016-0.256,0.047l-6.809,6.803c-0.067,0.073-0.091,0.193-0.035,0.282
	c0.047,0.096,0.147,0.144,0.247,0.121c0.423-0.072,0.849-0.114,1.273-0.114c3.871,0,7.014,3.15,7.014,7.011
	c0,3.861-3.143,7.009-7.014,7.009c-3.867,0-7.013-3.147-7.013-7.009c0-0.125,0.005-0.246,0.015-0.376
	c0-0.063-0.027-0.132-0.068-0.178c-0.042-0.049-0.104-0.079-0.173-0.079h-7.73c-0.132,0-0.237,0.105-0.237,0.234v0.117
	c-0.006,0.093-0.006,0.194-0.006,0.281c0,8.388,6.825,15.212,15.212,15.212h0.072c0.897,0,1.909,0,2.896-0.392
	c0.215-0.085,0.703-0.479,1.317-1.023l9.263-9.269C30.936,29.846,31.477,29.184,31.555,28.918"/>
</svg>
