<?xml version="1.0" encoding="utf-8"?>
<!-- Generator: Adobe Illustrator 16.0.0, SVG Export Plug-In . SVG Version: 6.00 Build 0)  -->
<!DOCTYPE svg PUBLIC "-//W3C//DTD SVG 1.1//EN" "http://www.w3.org/Graphics/SVG/1.1/DTD/svg11.dtd">
<svg version="1.1" id="Layer_1" xmlns="http://www.w3.org/2000/svg" xmlns:xlink="http://www.w3.org/1999/xlink" x="0px" y="0px"
	 width="26px" height="24px" viewBox="3.626 3.173 26 24" enable-background="new 3.626 3.173 26 24" xml:space="preserve">
<g>
	<path fill="#fff" d="M27.278,3.174H5.975c-1.297,0-2.348,1.061-2.348,2.37v14.71c0,1.31,1.051,2.371,2.348,2.371h9.761
		l1.312,4.004c0.398,1.225,0.625,0,0.625,0l1.129-4.004h8.476c1.297,0,2.349-1.061,2.349-2.371V5.543
		C29.626,4.234,28.575,3.174,27.278,3.174z"/>
	<g>
		<g>
			<path fill="#211f1f" d="M9.483,10.513c0,0-0.701,0-1.337,0.625V8.619H6.572v6.617h1.59v-0.518c0,0,0.375,0.683,1.321,0.683
				c0,0,2.218-0.083,2.218-2.469C11.701,12.932,11.62,10.513,9.483,10.513z M9.137,14.005c-0.559,0-1.011-0.457-1.011-1.021
				c0-0.563,0.453-1.02,1.011-1.02c0.558,0,1.011,0.457,1.011,1.02C10.148,13.548,9.695,14.005,9.137,14.005z"/>
			<path fill="#211f1f" d="M12.207,8.472v1.53c0,0,0.718-0.033,0.718,1.317v3.917h1.517v-4.279
				C14.441,10.957,14.506,8.472,12.207,8.472z"/>
			<path fill="#211f1f" d="M18.15,10.533c0,0-2.6,0-2.6,2.45c0,0-0.084,2.418,2.6,2.418c0,0,2.66-0.004,2.66-2.418
				C20.81,12.983,20.896,10.533,18.15,10.533z M18.151,14.005c-0.559,0-1.012-0.457-1.012-1.021c0-0.563,0.453-1.02,1.012-1.02
				c0.558,0,1.01,0.457,1.01,1.02C19.161,13.548,18.708,14.005,18.151,14.005z"/>
			<path fill="#211f1f" d="M25.151,10.694v0.444c0,0-0.453-0.605-1.321-0.605c0,0-2.226-0.095-2.226,2.434
				c0,0-0.024,2.356,2.165,2.356c0,0,0.893,0.037,1.382-0.605v0.37c0,0,0.11,1.161-1.002,1.161H23.77v1.408h0.611
				c0,0,2.3,0.024,2.3-2.481v-4.481H25.151z M24.21,14.005c-0.558,0-1.011-0.457-1.011-1.021c0-0.563,0.453-1.02,1.011-1.02
				c0.559,0,1.012,0.457,1.012,1.02C25.222,13.548,24.77,14.005,24.21,14.005z"/>
		</g>
	</g>
</g>
</svg>
