<?xml version="1.0" encoding="utf-8"?>
<!-- Generator: Adobe Illustrator 16.0.0, SVG Export Plug-In . SVG Version: 6.00 Build 0)  -->
<!DOCTYPE svg PUBLIC "-//W3C//DTD SVG 1.1//EN" "http://www.w3.org/Graphics/SVG/1.1/DTD/svg11.dtd">
<svg version="1.1" id="Layer_1" xmlns="http://www.w3.org/2000/svg" xmlns:xlink="http://www.w3.org/1999/xlink" x="0px" y="0px"
	 width="40px" height="40px" viewBox="-4.03 -4 40 40" enable-background="new -4.03 -4 40 40" xml:space="preserve">
<path id="Shape_2_" fill="#3B4044" d="M20.97,6.004L18.377,6c-2.914,0-4.797,1.932-4.797,4.922v2.27h-2.608
	c-0.225,0-0.407,0.183-0.407,0.408v3.288c0,0.226,0.183,0.407,0.407,0.407h2.608v8.297c0,0.226,0.182,0.408,0.407,0.408h3.403
	c0.225,0,0.407-0.183,0.407-0.408v-8.297h3.049c0.226,0,0.408-0.182,0.408-0.407l0.001-3.288c0-0.108-0.043-0.212-0.119-0.289
	s-0.181-0.12-0.289-0.12h-3.05v-1.924c0-0.925,0.22-1.394,1.425-1.394l1.747,0c0.226,0,0.407-0.183,0.407-0.408V6.412
	C21.377,6.187,21.195,6.004,20.97,6.004z"/>
</svg>
