<?xml version="1.0" encoding="utf-8"?>
<!-- Generator: Adobe Illustrator 16.0.0, SVG Export Plug-In . SVG Version: 6.00 Build 0)  -->
<!DOCTYPE svg PUBLIC "-//W3C//DTD SVG 1.1//EN" "http://www.w3.org/Graphics/SVG/1.1/DTD/svg11.dtd">
<svg version="1.1" id="Layer_1" xmlns="http://www.w3.org/2000/svg" xmlns:xlink="http://www.w3.org/1999/xlink" x="0px" y="0px"
	 width="40px" height="40px" viewBox="0 0 40 40" enable-background="new 0 0 40 40" xml:space="preserve">
<path fill="#ED5358" d="M40,20c0,11.046-8.955,20-20,20S0,31.046,0,20c0-2.929,0.629-5.71,1.76-8.214C4.893,4.839,11.883,0,20,0
	c8.116,0,15.106,4.839,18.24,11.786C39.371,14.29,40,17.071,40,20z"/>
<g>
	<g>
		<g>
			<g>
				<defs>
					<ellipse id="SVGID_1_" cx="19.864" cy="19.784" rx="19.864" ry="19.784"/>
				</defs>
				<clipPath id="SVGID_2_">
					<use xlink:href="#SVGID_1_"  overflow="visible"/>
				</clipPath>
				<g clip-path="url(#SVGID_2_)">
				</g>
			</g>
		</g>
	</g>
</g>
<path id="Combined-Shape_1_" fill="#FFFFFF" d="M24.21,9.892h-8.03c-3.263,0-5.917,2.644-5.917,5.894v7.996
	c0,3.251,2.655,5.895,5.917,5.895h8.03c3.263,0,5.917-2.644,5.917-5.895v-7.996C30.127,12.536,27.473,9.892,24.21,9.892z
	 M28.128,23.781c0,2.155-1.756,3.904-3.918,3.904h-8.03c-2.164,0-3.919-1.749-3.919-3.904v-7.996c0-2.155,1.755-3.903,3.919-3.903
	h8.03c2.164,0,3.918,1.748,3.918,3.903V23.781L28.128,23.781z M20.195,14.667c2.833,0,5.138,2.296,5.138,5.117
	c0,2.821-2.305,5.118-5.138,5.118c-2.833,0-5.138-2.297-5.138-5.118C15.057,16.962,17.362,14.667,20.195,14.667z M20.195,22.91
	c1.734,0,3.139-1.399,3.139-3.126c0-1.728-1.405-3.127-3.139-3.127s-3.14,1.399-3.14,3.127C17.055,21.511,18.461,22.91,20.195,22.91
	z M25.345,15.931c-0.683,0-1.232-0.549-1.232-1.226s0.553-1.226,1.232-1.226s1.229,0.549,1.229,1.226S26.022,15.931,25.345,15.931z"
	/>
</svg>
