<?xml version="1.0" encoding="utf-8"?>
<!-- Generator: Adobe Illustrator 16.0.0, SVG Export Plug-In . SVG Version: 6.00 Build 0)  -->
<!DOCTYPE svg PUBLIC "-//W3C//DTD SVG 1.1//EN" "http://www.w3.org/Graphics/SVG/1.1/DTD/svg11.dtd">
<svg version="1.1" id="Layer_1" xmlns="http://www.w3.org/2000/svg" xmlns:xlink="http://www.w3.org/1999/xlink" x="0px" y="0px"
	 width="40px" height="40px" viewBox="-4 -4 40 40" enable-background="new -4 -4 40 40" xml:space="preserve">
<path id="Combined-Shape_1_" fill="#3B4044" d="M20.042,6h-8.084C8.673,6,6,8.673,6,11.958v8.084C6,23.327,8.673,26,11.958,26h8.084
	C23.327,26,26,23.327,26,20.042v-8.084C26,8.673,23.327,6,20.042,6z M23.988,20.042c0,2.179-1.768,3.946-3.946,3.946h-8.084
	c-2.179,0-3.946-1.768-3.946-3.946v-8.084c0-2.179,1.768-3.946,3.946-3.946h8.084c2.179,0,3.946,1.767,3.946,3.946V20.042
	L23.988,20.042z M16,10.827c2.852,0,5.173,2.321,5.173,5.173c0,2.852-2.321,5.173-5.173,5.173S10.827,18.852,10.827,16
	C10.827,13.148,13.148,10.827,16,10.827z M16,19.16c1.746,0,3.16-1.414,3.16-3.16c0-1.746-1.414-3.161-3.16-3.161
	S12.84,14.254,12.84,16C12.84,17.746,14.254,19.16,16,19.16z M21.183,12.105c-0.685,0-1.239-0.555-1.239-1.239
	s0.555-1.239,1.239-1.239s1.239,0.555,1.239,1.239S21.867,12.105,21.183,12.105z"/>
</svg>
