<?xml version="1.0" encoding="utf-8"?>
<!-- Generator: Adobe Illustrator 16.0.0, SVG Export Plug-In . SVG Version: 6.00 Build 0)  -->
<!DOCTYPE svg PUBLIC "-//W3C//DTD SVG 1.1//EN" "http://www.w3.org/Graphics/SVG/1.1/DTD/svg11.dtd">
<svg version="1.1" id="Layer_1" xmlns="http://www.w3.org/2000/svg" xmlns:xlink="http://www.w3.org/1999/xlink" x="0px" y="0px"
	 width="207px" height="94px" viewBox="0 0 207 94" enable-background="new 0 0 207 94" xml:space="preserve">
<g>
	<polygon points="73.924,34.233 69.397,34.233 69.397,1.625 51.238,1.625 51.238,92.838 69.397,92.838 69.397,51.069 73.924,51.069 
		73.924,92.838 92.081,92.838 92.081,1.625 73.924,1.625 	"/>
	<polygon points="2.938,19.854 27.817,19.854 27.817,42.936 0,91.852 20.842,91.852 46.094,47.446 46.094,1.625 2.938,1.625 	"/>
	<polygon points="177.612,1.625 177.612,34.817 173.56,34.817 173.56,1.625 155.757,1.625 155.757,88.313 137.583,32.066 
		137.583,1.625 118.462,1.625 118.462,32.066 98.792,92.937 116.91,92.937 128.025,58.546 139.137,92.937 173.56,92.937 
		173.56,51.659 177.612,51.659 177.612,92.937 195.412,92.937 195.412,1.625 	"/>
</g>
<g>
	<path d="M199.321,5.11c0-2.385,1.734-4.045,3.841-4.045c2.085,0,3.839,1.66,3.839,4.045c0,2.418-1.754,4.026-3.839,4.026
		C201.055,9.137,199.321,7.528,199.321,5.11z M206.227,5.11c0-1.941-1.35-3.343-3.065-3.343c-1.736,0-3.085,1.401-3.085,3.343
		c0,1.958,1.349,3.341,3.085,3.341C204.877,8.451,206.227,7.068,206.227,5.11z M201.683,2.949h1.534c0.83,0,1.586,0.353,1.586,1.35
		c0,0.498-0.312,0.978-0.775,1.126l0.963,1.734h-0.887l-0.758-1.476h-0.867v1.476h-0.796V2.949z M203.033,5.056
		c0.572,0,0.922-0.223,0.922-0.702c0-0.424-0.22-0.722-0.867-0.722h-0.608v1.424H203.033z"/>
</g>
</svg>
