<?xml version="1.0" encoding="utf-8"?>
<!-- Generator: Adobe Illustrator 16.0.0, SVG Export Plug-In . SVG Version: 6.00 Build 0)  -->
<!DOCTYPE svg PUBLIC "-//W3C//DTD SVG 1.1//EN" "http://www.w3.org/Graphics/SVG/1.1/DTD/svg11.dtd">
<svg version="1.1" id="Capa_1" xmlns="http://www.w3.org/2000/svg" xmlns:xlink="http://www.w3.org/1999/xlink" x="0px" y="0px"
	 width="10px" height="12px" viewBox="0 0 10 12" enable-background="new 0 0 10 12" xml:space="preserve">
<g>
	<path fill="#FFFFFF" d="M6.552,11.886c0.075-0.076,0.115-0.172,0.115-0.291V5.736h2.918c0.173,0,0.299-0.082,0.378-0.244
		c0.068-0.162,0.044-0.313-0.079-0.449L5.275,0.127C5.187,0.042,5.083,0,4.961,0C4.849,0,4.749,0.043,4.663,0.128L0.104,5.044
		C-0.007,5.181-0.03,5.331,0.04,5.493c0.069,0.162,0.192,0.244,0.378,0.244h2.917v5.857c0,0.119,0.038,0.216,0.116,0.291
		C3.527,11.965,3.628,12,3.749,12h2.503C6.373,12.001,6.475,11.966,6.552,11.886z"/>
</g>
</svg>
