<?xml version="1.0" encoding="utf-8"?>
<!-- Generator: Adobe Illustrator 16.0.0, SVG Export Plug-In . SVG Version: 6.00 Build 0)  -->
<!DOCTYPE svg PUBLIC "-//W3C//DTD SVG 1.1//EN" "http://www.w3.org/Graphics/SVG/1.1/DTD/svg11.dtd">
<svg version="1.1" id="Capa_1" xmlns="http://www.w3.org/2000/svg" xmlns:xlink="http://www.w3.org/1999/xlink" x="0px" y="0px"
	 width="12px" height="10px" viewBox="240.676 241.676 12 10" enable-background="new 240.676 241.676 12 10" xml:space="preserve">
<g>
	<path fill="#231F1F" d="M252.665,245.153c-0.077-0.076-0.173-0.115-0.292-0.115h-5.858v-2.868c0-0.17-0.082-0.294-0.244-0.371
		c-0.162-0.068-0.312-0.043-0.448,0.077l-4.916,4.532c-0.085,0.085-0.127,0.187-0.127,0.307c0,0.111,0.042,0.209,0.127,0.294
		l4.917,4.481c0.136,0.109,0.285,0.132,0.447,0.063c0.162-0.068,0.244-0.19,0.244-0.371v-2.867h5.858
		c0.119,0,0.215-0.037,0.292-0.115c0.079-0.076,0.115-0.175,0.115-0.293v-2.459C252.78,245.329,252.744,245.229,252.665,245.153z"/>
</g>
</svg>
