<?xml version="1.0" encoding="utf-8"?>
<!-- Generator: Adobe Illustrator 16.0.0, SVG Export Plug-In . SVG Version: 6.00 Build 0)  -->
<!DOCTYPE svg PUBLIC "-//W3C//DTD SVG 1.1//EN" "http://www.w3.org/Graphics/SVG/1.1/DTD/svg11.dtd">
<svg version="1.1" id="Layer_1" xmlns="http://www.w3.org/2000/svg" xmlns:xlink="http://www.w3.org/1999/xlink" x="0px" y="0px"
	 width="24px" height="24px" viewBox="3.25 3.25 24 24" enable-background="new 3.25 3.25 24 24" xml:space="preserve">
<path id="Shape_2_" fill="#fff" d="M20.249,5.254L17.656,5.25c-2.914,0-4.797,1.932-4.797,4.922v2.27h-2.608
	c-0.225,0-0.407,0.183-0.407,0.408v3.288c0,0.225,0.183,0.408,0.407,0.408h2.608v8.297c0,0.225,0.182,0.408,0.407,0.408h3.402
	c0.226,0,0.408-0.183,0.408-0.408v-8.297h3.049c0.226,0,0.408-0.183,0.408-0.408l0.001-3.288c0-0.108-0.043-0.212-0.119-0.289
	c-0.077-0.077-0.181-0.12-0.289-0.12h-3.05v-1.924c0-0.925,0.22-1.394,1.425-1.394l1.747,0c0.225,0,0.407-0.183,0.407-0.408V5.662
	C20.656,5.437,20.475,5.254,20.249,5.254z"/>
</svg>
