<?xml version="1.0" encoding="utf-8"?>
<!-- Generator: Adobe Illustrator 16.0.0, SVG Export Plug-In . SVG Version: 6.00 Build 0)  -->
<!DOCTYPE svg PUBLIC "-//W3C//DTD SVG 1.1//EN" "http://www.w3.org/Graphics/SVG/1.1/DTD/svg11.dtd">
<svg version="1.1" id="Layer_1" xmlns="http://www.w3.org/2000/svg" xmlns:xlink="http://www.w3.org/1999/xlink" x="0px" y="0px"
	 width="24px" height="24px" viewBox="0 0 24 24" enable-background="new 0 0 24 24" xml:space="preserve">
<path id="Shape_2_" d="M17,0.462l-2.594-0.004c-2.914,0-4.796,1.932-4.796,4.922v2.27H7.001c-0.225,0-0.407,0.183-0.407,0.408v3.29
	c0,0.225,0.183,0.406,0.407,0.406H9.61v8.297c0,0.227,0.182,0.408,0.406,0.408h3.402c0.227,0,0.408-0.182,0.408-0.408v-8.297h3.049
	c0.227,0,0.408-0.182,0.408-0.406l0.002-3.29c0-0.107-0.043-0.211-0.119-0.289c-0.078-0.077-0.182-0.12-0.289-0.12h-3.051V5.725
	c0-0.925,0.221-1.394,1.426-1.394h1.746c0.225,0,0.406-0.183,0.406-0.408V0.87C17.406,0.645,17.225,0.462,17,0.462z"/>
</svg>
