<?xml version="1.0" encoding="utf-8"?>
<!-- Generator: Adobe Illustrator 16.0.0, SVG Export Plug-In . SVG Version: 6.00 Build 0)  -->
<!DOCTYPE svg PUBLIC "-//W3C//DTD SVG 1.1//EN" "http://www.w3.org/Graphics/SVG/1.1/DTD/svg11.dtd">
<svg version="1.1" id="Layer_1" xmlns="http://www.w3.org/2000/svg" xmlns:xlink="http://www.w3.org/1999/xlink" x="0px" y="0px"
	 width="24px" height="24px" viewBox="0 0 24 24" enable-background="new 0 0 24 24" xml:space="preserve">
<g>
	<path id="Combined-Shape_1_" d="M16.042,2H7.958C4.673,2,2,4.673,2,7.958v8.084C2,19.327,4.673,22,7.958,22h8.084
		C19.327,22,22,19.327,22,16.042V7.958C22,4.673,19.327,2,16.042,2z M19.988,16.042c0,2.179-1.768,3.946-3.946,3.946H7.958
		c-2.179,0-3.946-1.769-3.946-3.946V7.958c0-2.179,1.768-3.946,3.946-3.946h8.084c2.179,0,3.946,1.768,3.946,3.946V16.042
		L19.988,16.042z M12,6.827c2.852,0,5.173,2.321,5.173,5.173S14.852,17.173,12,17.173S6.827,14.852,6.827,12S9.148,6.827,12,6.827z
		 M12,15.16c1.746,0,3.16-1.414,3.16-3.16S13.746,8.839,12,8.839S8.839,10.254,8.839,12S10.254,15.16,12,15.16z M17.184,8.105
		c-0.686,0-1.24-0.556-1.24-1.239c0-0.685,0.556-1.239,1.24-1.239c0.684,0,1.238,0.555,1.238,1.239
		C18.422,7.55,17.867,8.105,17.184,8.105z"/>
</g>
</svg>
