<?xml version="1.0" encoding="utf-8"?>
<!-- Generator: Adobe Illustrator 16.0.0, SVG Export Plug-In . SVG Version: 6.00 Build 0)  -->
<!DOCTYPE svg PUBLIC "-//W3C//DTD SVG 1.1//EN" "http://www.w3.org/Graphics/SVG/1.1/DTD/svg11.dtd">
<svg version="1.1" id="Layer_1" xmlns="http://www.w3.org/2000/svg" xmlns:xlink="http://www.w3.org/1999/xlink" x="0px" y="0px"
	 width="236px" height="27px" viewBox="0 0 236 27" enable-background="new 0 0 236 27" xml:space="preserve">
<path fill="#fff" d="M20.013,0.249H0.272C0.108,0.249,0,0.372,0,0.519v5.152c0,0.161,0.108,0.268,0.272,0.268h7.022v20.545
	c0,0.154,0.12,0.265,0.269,0.265h5.231c0.136,0,0.269-0.11,0.269-0.265V5.938h6.95c0.161,0,0.269-0.106,0.269-0.268V0.519
	C20.281,0.372,20.173,0.249,20.013,0.249"/>
<path fill="#fff" d="M46.499,0.249h-5.247c-0.144,0-0.256,0.123-0.256,0.27v10.109H31.08V0.519c0-0.146-0.125-0.27-0.289-0.27
	H25.6c-0.124,0-0.268,0.123-0.268,0.27v25.965c0,0.154,0.145,0.265,0.268,0.265h5.191c0.164,0,0.289-0.11,0.289-0.265V16.365h9.916
	v10.118c0,0.154,0.112,0.265,0.256,0.265h5.247c0.144,0,0.269-0.11,0.269-0.265V0.519C46.768,0.372,46.643,0.249,46.499,0.249"/>
<path fill="#fff" d="M58.039,0.249h-5.187c-0.145,0-0.272,0.123-0.272,0.27v25.965c0,0.154,0.127,0.265,0.272,0.265h5.187
	c0.168,0,0.272-0.11,0.272-0.265V0.519C58.311,0.372,58.207,0.249,58.039,0.249"/>
<path fill="#fff" d="M78.632,15.927c1.283-0.664,2.349-1.608,3.146-2.837c0.886-1.34,1.319-2.872,1.319-4.548
	c0-1.161-0.208-2.229-0.681-3.231c-0.437-1-1.05-1.873-1.812-2.635c-0.758-0.731-1.644-1.32-2.662-1.763
	c-1.014-0.431-2.081-0.663-3.239-0.663H64.046c-0.124,0-0.248,0.122-0.248,0.268v25.966c0,0.154,0.124,0.265,0.248,0.265h5.211
	c0.132,0,0.272-0.11,0.272-0.265v-9.633h2.75l7.063,9.787c0.051,0.055,0.144,0.11,0.236,0.11h6.385c0.1,0,0.196-0.056,0.252-0.143
	c0.033-0.103,0.016-0.193-0.04-0.284L78.632,15.927z M76.476,10.391c-0.578,0.519-1.496,0.807-2.75,0.807H69.53V5.938h4.196
	c1.267,0,2.172,0.285,2.75,0.786c0.585,0.498,0.873,1.087,0.873,1.817C77.349,9.258,77.061,9.847,76.476,10.391"/>
<path fill="#fff" d="M140.911,14.121c-0.662-0.676-1.523-1.32-2.553-1.904c-1.035-0.569-2.338-1.186-3.859-1.746
	c-0.502-0.183-1.01-0.359-1.48-0.538c-0.451-0.213-0.869-0.406-1.213-0.64c-0.346-0.201-0.594-0.442-0.795-0.72
	c-0.176-0.244-0.268-0.474-0.268-0.763c0-0.715,0.248-1.196,0.773-1.571c0.549-0.376,1.307-0.554,2.301-0.554
	c0.537,0,1.086,0.106,1.607,0.289c0.525,0.197,1.014,0.395,1.422,0.607c0.496,0.266,0.986,0.55,1.451,0.87
	c0.113,0.095,0.281,0.055,0.365-0.031l3.227-4.034c0.104-0.091,0.084-0.27-0.023-0.356c-0.449-0.375-0.99-0.77-1.648-1.126
	c-0.648-0.371-1.359-0.69-2.096-0.956c-0.723-0.272-1.5-0.501-2.266-0.683c-0.797-0.179-1.535-0.265-2.229-0.265
	c-1.277,0-2.473,0.174-3.539,0.585c-1.066,0.395-1.996,0.947-2.773,1.658c-0.754,0.695-1.355,1.538-1.771,2.501
	c-0.393,0.964-0.613,1.995-0.613,3.086c0,1.067,0.197,2.016,0.582,2.849c0.359,0.825,0.904,1.557,1.586,2.192
	c0.693,0.648,1.488,1.201,2.41,1.644c0.924,0.479,1.916,0.908,2.969,1.319c0.902,0.336,1.645,0.676,2.236,0.948
	c0.57,0.32,1.035,0.601,1.363,0.854c0.305,0.253,0.525,0.497,0.65,0.694c0.092,0.193,0.168,0.355,0.168,0.515
	c0,0.466-0.092,0.837-0.293,1.146c-0.201,0.3-0.469,0.553-0.781,0.766c-0.32,0.175-0.705,0.324-1.086,0.411
	c-0.846,0.214-1.752,0.214-2.695-0.143c-0.543-0.182-1.068-0.43-1.555-0.694c-0.469-0.268-0.926-0.573-1.283-0.861
	c-0.379-0.304-0.652-0.546-0.816-0.763c-0.037-0.052-0.111-0.095-0.199-0.095c-0.053-0.013-0.141,0.023-0.193,0.074l-3.912,3.552
	c-0.123,0.104-0.123,0.281-0.02,0.376c0.199,0.233,0.58,0.589,1.105,1.102c0.506,0.462,1.082,0.929,1.732,1.34
	c0.023,0.016,0.043,0.04,0.08,0.052c0.953,0.628,2.02,1.09,3.109,1.396c1.098,0.331,2.262,0.496,3.42,0.496
	c1.318,0,2.553-0.216,3.654-0.627c1.123-0.411,2.098-0.996,2.91-1.712c0.814-0.73,1.467-1.604,1.92-2.587
	c0.494-0.992,0.705-2.082,0.705-3.192c0-0.904-0.123-1.778-0.4-2.561C142.012,15.548,141.561,14.801,140.911,14.121"/>
<path fill="#fff" d="M165.077,5.67V0.519c0-0.146-0.1-0.27-0.254-0.27h-19.752c-0.148,0-0.273,0.123-0.273,0.27V5.67
	c0,0.162,0.125,0.27,0.273,0.27h7.023v20.544c0,0.154,0.119,0.265,0.268,0.265h5.23c0.16,0,0.27-0.11,0.27-0.265V5.939h6.961
	C164.977,5.939,165.077,5.832,165.077,5.67"/>
<path fill="#fff" d="M176.985,0.162C176.967,0.071,176.86,0,176.749,0h-2.225c-0.109,0-0.201,0.071-0.254,0.162l-11.703,26.21
	c-0.02,0.091-0.02,0.183,0.037,0.266c0.055,0.055,0.143,0.109,0.23,0.109h5.717c0.113,0,0.205-0.066,0.256-0.157
	c0.305-0.746,0.65-1.533,1.01-2.351c0.365-0.79,0.711-1.537,1.02-2.217h9.674l2.084,4.567c0.057,0.091,0.143,0.157,0.254,0.157
	h5.736c0.104,0,0.195-0.055,0.248-0.109c0.057-0.083,0.057-0.175,0.023-0.266L176.985,0.162z M173.37,16.298l2.295-5.065
	l2.281,5.065H173.37z"/>
<path fill="#fff" d="M207.979,1.103c-3.367-1.441-7.059-1.441-10.389-0.146c-1.607,0.647-3.098,1.54-4.336,2.714
	c-1.271,1.197-2.305,2.623-3.074,4.294c-0.787,1.68-1.18,3.54-1.18,5.571c0,1.694,0.342,3.382,0.955,4.99
	c0.637,1.611,1.555,3.054,2.748,4.299c1.199,1.248,2.65,2.247,4.311,3.033c1.699,0.747,3.594,1.142,5.662,1.142
	c1.885,0,3.635-0.339,5.195-1.019c1.574-0.652,3.07-1.66,4.541-2.924c0.051-0.051,0.084-0.143,0.084-0.21V11.806
	c0-0.146-0.125-0.288-0.266-0.288h-10.313c-0.145,0-0.275,0.142-0.275,0.288v5.137c0,0.161,0.131,0.284,0.275,0.284h4.846v3.015
	c-0.596,0.304-1.234,0.588-1.898,0.785c-1.809,0.479-3.697,0.356-5.268-0.323c-0.953-0.411-1.787-0.96-2.514-1.671
	c-0.721-0.685-1.281-1.522-1.699-2.446c-0.4-0.968-0.613-1.96-0.613-3.05c0-1.07,0.213-2.086,0.613-3.034
	c0.418-0.964,0.979-1.817,1.699-2.513c0.727-0.711,1.561-1.284,2.514-1.695c1.863-0.782,4.076-0.873,6.176,0.087
	c1.047,0.467,2.008,1.143,2.932,1.964c0.088,0.106,0.264,0.106,0.355,0l3.604-3.689c0.092-0.107,0.092-0.285-0.016-0.376
	C211.254,2.884,209.678,1.821,207.979,1.103"/>
<path fill="#fff" d="M107.002,3.939c-1.122-1.154-2.497-2.086-4.088-2.706c-1.6-0.664-3.423-0.983-5.396-0.983h-9.131
	c-0.168,0-0.28,0.122-0.28,0.268v25.966c0,0.154,0.112,0.265,0.28,0.265h9.131c1.54,0,2.966-0.193,4.272-0.621l7.977-7.846
	c0.508-1.466,0.781-3.051,0.781-4.745c0-1.943-0.309-3.745-0.926-5.37C109.006,6.559,108.124,5.121,107.002,3.939 M104.232,16.511
	c-0.361,0.917-0.886,1.716-1.536,2.392c-0.657,0.684-1.418,1.213-2.3,1.591c-0.869,0.368-1.843,0.566-2.878,0.566h-3.688V5.99h3.688
	c1.035,0,2.009,0.182,2.878,0.568c0.882,0.411,1.644,0.948,2.3,1.628c0.65,0.672,1.175,1.478,1.536,2.382
	c0.349,0.917,0.549,1.913,0.549,2.968C104.781,14.604,104.581,15.603,104.232,16.511"/>
<path fill="#fff" d="M235.731,21.06h-13.586v-4.695h9.73c0.148,0,0.273-0.098,0.273-0.265v-5.203
	c0-0.142-0.125-0.269-0.273-0.269h-9.73V5.939h11.289c0.162,0,0.285-0.107,0.285-0.27V0.519c0-0.146-0.123-0.27-0.285-0.27h-16.809
	c-0.145,0-0.25,0.123-0.25,0.27v25.965c0,0.154,0.105,0.264,0.25,0.264H230.5l5.5-5.424C236,21.169,235.875,21.06,235.731,21.06"/>
</svg>
