<?xml version="1.0" encoding="utf-8"?>
<!-- Generator: Adobe Illustrator 16.0.0, SVG Export Plug-In . SVG Version: 6.00 Build 0)  -->
<!DOCTYPE svg PUBLIC "-//W3C//DTD SVG 1.1//EN" "http://www.w3.org/Graphics/SVG/1.1/DTD/svg11.dtd">
<svg version="1.1" id="Layer_1" xmlns="http://www.w3.org/2000/svg" xmlns:xlink="http://www.w3.org/1999/xlink" x="0px" y="0px"
	 width="102px" height="51px" viewBox="0 0 102 51" enable-background="new 0 0 102 51" xml:space="preserve">
<path d="M87.703,41.928h-5.73c-0.08,0-0.152,0.08-0.152,0.163v2.431c0,0.092,0.072,0.16,0.152,0.16h3.123l0.008,1.948
	c-0.11,0.142-0.438,0.31-0.438,0.31c-0.332,0.172-0.686,0.332-1.057,0.442c-1.004,0.271-2.242,0.201-3.115-0.182
	c-0.193-0.084-0.374-0.185-0.549-0.288c-0.021-0.014-0.039-0.023-0.059-0.036c-0.078-0.049-0.156-0.101-0.23-0.153
	c-0.027-0.019-0.055-0.039-0.082-0.061c-0.068-0.051-0.135-0.102-0.199-0.154c-0.094-0.078-0.184-0.16-0.271-0.244
	c0-0.003-0.004-0.005-0.006-0.006c-0.006-0.006-0.01-0.012-0.016-0.017c-0.863-0.854-1.402-2.058-1.402-3.394
	c0-1.271,0.488-2.423,1.279-3.268h0.016c0.041-0.046,0.082-0.091,0.123-0.132c0.404-0.401,0.867-0.726,1.396-0.956
	c1.035-0.441,2.266-0.492,3.432,0.049c0.582,0.264,1.117,0.645,1.629,1.105c0.049,0.062,0.146,0.062,0.197,0l2.002-2.08
	c0.051-0.06,0.051-0.158-0.009-0.211c-0.774-0.785-1.649-1.385-2.595-1.791c-1.871-0.813-3.922-0.813-5.771-0.082
	c-0.893,0.365-1.722,0.869-2.41,1.531c-0.107,0.104-0.207,0.215-0.31,0.325h-0.007c-0.025,0.029-0.051,0.06-0.077,0.088
	c-0.054,0.06-0.106,0.117-0.159,0.179c-0.139,0.162-0.27,0.33-0.396,0.506c-0.004,0.006-0.008,0.012-0.013,0.018
	c-0.946,1.318-1.512,2.949-1.512,4.721c0,1.369,0.34,2.654,0.932,3.777c0.007,0.01,0.011,0.021,0.017,0.031
	c0.037,0.068,0.072,0.141,0.111,0.21c0.303,0.554,0.672,1.063,1.108,1.526c0.448,0.474,0.965,0.877,1.532,1.23
	c0.025,0.016,0.054,0.035,0.08,0.051c0.144,0.088,0.291,0.168,0.441,0.248c0.02,0.01,0.035,0.02,0.055,0.029
	c0.096,0.05,0.188,0.104,0.285,0.15c0.943,0.42,2.188,0.644,3.336,0.644c1.047,0,2.021-0.19,2.887-0.574
	c0.875-0.368,1.705-0.935,2.521-1.647c0.029-0.028,0.047-0.08,0.047-0.117V42.09C87.85,42.008,87.781,41.928,87.703,41.928"/>
<path d="M49.877,15.062H38.911c-0.092,0-0.152,0.069-0.152,0.152v2.903c0,0.092,0.06,0.151,0.152,0.151h3.901v11.58
	c0,0.088,0.067,0.149,0.149,0.149h2.906c0.076,0,0.15-0.063,0.15-0.149v-11.58h3.861c0.089,0,0.149-0.06,0.149-0.151v-2.903
	C50.026,15.131,49.967,15.062,49.877,15.062"/>
<path d="M64.123,15.062h-2.914c-0.08,0-0.145,0.069-0.145,0.152v5.698h-5.508v-5.698c0-0.083-0.07-0.152-0.16-0.152h-2.885
	c-0.068,0-0.148,0.069-0.148,0.152V29.85c0,0.086,0.08,0.148,0.148,0.148h2.885c0.09,0,0.16-0.063,0.16-0.148v-5.705h5.508v5.705
	c0,0.086,0.063,0.148,0.145,0.148h2.914c0.08,0,0.148-0.063,0.148-0.148V15.214C64.271,15.131,64.203,15.062,64.123,15.062"/>
<path d="M69.885,15.062h-2.882c-0.08,0-0.151,0.069-0.151,0.152V29.85c0,0.086,0.071,0.148,0.151,0.148h2.882
	c0.094,0,0.151-0.063,0.151-0.148V15.214C70.036,15.131,69.979,15.062,69.885,15.062"/>
<path d="M80.857,23.898c0.711-0.374,1.305-0.906,1.748-1.599c0.492-0.756,0.731-1.619,0.731-2.563c0-0.655-0.114-1.256-0.379-1.822
	c-0.242-0.563-0.582-1.055-1.006-1.484c-0.421-0.412-0.914-0.744-1.479-0.993c-0.563-0.243-1.156-0.374-1.799-0.374h-5.922
	c-0.068,0-0.139,0.069-0.139,0.151V29.85c0,0.086,0.068,0.147,0.139,0.147h2.895c0.074,0,0.152-0.062,0.152-0.147v-5.431h1.526
	l3.925,5.517c0.027,0.031,0.08,0.063,0.131,0.063h3.547c0.057,0,0.109-0.03,0.141-0.08c0.019-0.059,0.011-0.107-0.021-0.159
	L80.857,23.898z M79.659,20.778c-0.321,0.292-0.831,0.454-1.528,0.454h-2.33v-2.964h2.33c0.705,0,1.207,0.161,1.528,0.443
	c0.325,0.28,0.485,0.612,0.485,1.024C80.145,20.14,79.984,20.472,79.659,20.778"/>
<path d="M48.809,43.16c-0.372-0.385-0.856-0.753-1.436-1.086c-0.581-0.325-1.314-0.676-2.17-0.996
	c-0.282-0.104-0.568-0.206-0.832-0.307c-0.254-0.123-0.489-0.232-0.683-0.365c-0.194-0.115-0.333-0.254-0.446-0.41
	c-0.099-0.141-0.151-0.271-0.151-0.436c0-0.408,0.14-0.683,0.435-0.896c0.309-0.214,0.735-0.314,1.294-0.314
	c0.302,0,0.61,0.061,0.904,0.164c0.295,0.111,0.573,0.221,0.799,0.348c0.143,0.08,0.24,0.135,0.543,0.316
	c0.128,0.077,0.313,0.025,0.395-0.082l1.921-1.93c0.059-0.052,0.07-0.239-0.037-0.331c-0.25-0.218-0.556-0.44-0.926-0.644
	c-0.365-0.211-0.764-0.395-1.179-0.545c-0.405-0.156-0.842-0.287-1.273-0.391c-0.449-0.102-0.863-0.15-1.253-0.15
	c-0.719,0-1.391,0.099-1.99,0.334c-0.6,0.225-1.123,0.541-1.56,0.945c-0.424,0.396-0.762,0.877-0.996,1.428
	c-0.221,0.549-0.345,1.138-0.345,1.76c0,0.609,0.111,1.15,0.327,1.625c0.203,0.472,0.509,0.889,0.892,1.251
	c0.39,0.37,0.836,0.686,1.355,0.938c0.52,0.271,1.077,0.519,1.67,0.753c0.507,0.19,0.924,0.385,1.258,0.541
	c0.32,0.182,0.581,0.342,0.766,0.485c0.171,0.146,0.295,0.284,0.365,0.397c0.052,0.109,0.095,0.201,0.095,0.293
	c0,0.265-0.052,0.477-0.165,0.652c-0.113,0.172-0.264,0.315-0.439,0.438c-0.181,0.101-0.397,0.186-0.611,0.234
	c-0.476,0.121-0.985,0.121-1.515-0.082c-0.306-0.104-0.601-0.244-0.874-0.396c-0.264-0.152-0.521-0.327-0.721-0.49
	c-0.214-0.175-0.638-0.569-0.73-0.692c-0.021-0.029-0.063-0.055-0.113-0.055c-0.029-0.008-0.079,0.014-0.108,0.043l-2.101,2.1
	c-0.07,0.058-0.07,0.16-0.012,0.213c0.113,0.134,0.499,0.521,0.794,0.814c0.284,0.264,0.609,0.528,0.974,0.764
	c0.013,0.009,0.025,0.022,0.045,0.029c0.536,0.357,1.136,0.622,1.749,0.797c0.617,0.188,1.271,0.282,1.922,0.282
	c0.742,0,1.436-0.124,2.056-0.358c0.631-0.233,1.178-0.567,1.636-0.976c0.457-0.417,0.825-0.915,1.079-1.478
	c0.278-0.564,0.397-1.188,0.397-1.82c0-0.516-0.07-1.014-0.225-1.46C49.429,43.975,49.174,43.549,48.809,43.16"/>
<path d="M61.893,38.402V35.5c0-0.082-0.056-0.15-0.141-0.15H50.778c-0.082,0-0.151,0.068-0.151,0.15v2.902
	c0,0.092,0.069,0.152,0.151,0.152h3.902v11.579c0,0.087,0.066,0.148,0.148,0.148h2.904c0.09,0,0.15-0.063,0.15-0.148V38.555h3.867
	C61.837,38.555,61.893,38.494,61.893,38.402"/>
<path d="M96.904,17.142c-0.623-0.649-1.387-1.176-2.271-1.524c-0.887-0.374-1.9-0.556-2.996-0.556h-5.072
	c-0.094,0-0.156,0.069-0.156,0.152V29.85c0,0.086,0.063,0.148,0.156,0.148h5.072c0.855,0,1.648-0.109,2.373-0.352l4.432-4.421
	c0.283-0.827,0.435-1.719,0.435-2.675c0-1.095-0.17-2.111-0.515-3.026C98.02,18.619,97.527,17.808,96.904,17.142 M95.367,24.228
	c-0.201,0.518-0.492,0.967-0.854,1.349c-0.365,0.385-0.789,0.683-1.279,0.896c-0.482,0.207-1.023,0.318-1.598,0.318h-2.05v-8.493
	h2.05c0.573,0,1.114,0.102,1.598,0.321c0.49,0.23,0.914,0.533,1.279,0.917c0.36,0.379,0.651,0.833,0.854,1.343
	c0.193,0.517,0.305,1.078,0.305,1.672C95.672,23.152,95.561,23.716,95.367,24.228"/>
<path d="M100.908,47.066h-7.549v-2.883h5.406c0.082,0,0.151-0.057,0.151-0.149v-2.455c0-0.08-0.069-0.151-0.151-0.151h-5.406v-2.883
	h6.272c0.089,0,0.158-0.063,0.158-0.152V35.49c0-0.082-0.069-0.151-0.158-0.151h-9.34c-0.08,0-0.14,0.069-0.14,0.151v14.635
	c0,0.087,0.06,0.148,0.14,0.148h7.709l3.056-3.058C101.059,47.129,100.988,47.066,100.908,47.066"/>
<path d="M74.825,50.063l-6.429-14.647c-0.008-0.052-0.068-0.093-0.131-0.093h-1.236c-0.059,0-0.111,0.041-0.139,0.093l-6.308,14.647
	c-0.011,0.051-0.011,0.104,0.021,0.148c0.03,0.031,0.08,0.063,0.129,0.063h3.176c0.063,0,0.113-0.037,0.143-0.09
	c0.17-0.42,3.613-8.654,3.613-8.654l3.684,8.654c0.03,0.053,0.077,0.09,0.139,0.09h3.188c0.058,0,0.109-0.03,0.14-0.063
	C74.843,50.165,74.843,50.111,74.825,50.063"/>
<rect x="64.374" y="44.841" width="6.571" height="2.755"/>
<path d="M3.578,8.405h9.383l-7.054,7.054c-0.041,0.042-0.068,0.099-0.068,0.169c0,0.062,0.027,0.124,0.068,0.168l5.433,5.417
	l0.016,0.016c0.049,0.041,0.105,0.068,0.173,0.068c0.058,0,0.117-0.027,0.164-0.068L28.459,4.46
	c0.012-0.015,0.022-0.022,0.032-0.049c0.193-0.307,0.798-1.413,0.22-2.558c-0.56-1.124-1.918-1.218-2.324-1.218
	c-0.068,0-0.11,0-0.131,0.006H3.578c-0.136,0-0.242,0.104-0.242,0.242v7.29C3.335,8.298,3.441,8.405,3.578,8.405"/>
<path d="M31.555,28.918c0.278-0.923,0.336-2.029,0.336-2.797c0-3.108-0.933-6.109-2.702-8.652c-1.731-2.492-4.127-4.395-6.934-5.497
	c-0.089-0.038-0.187-0.016-0.256,0.047l-6.809,6.803c-0.067,0.073-0.091,0.193-0.035,0.282c0.047,0.096,0.147,0.144,0.247,0.121
	c0.423-0.072,0.849-0.114,1.273-0.114c3.871,0,7.014,3.15,7.014,7.011c0,3.86-3.143,7.009-7.014,7.009
	c-3.867,0-7.013-3.146-7.013-7.009c0-0.125,0.005-0.246,0.015-0.376c0-0.063-0.027-0.132-0.068-0.178
	c-0.042-0.049-0.104-0.079-0.173-0.079h-7.73c-0.132,0-0.237,0.104-0.237,0.234v0.117c-0.006,0.093-0.006,0.194-0.006,0.281
	c0,8.388,6.825,15.212,15.212,15.212h0.072c0.897,0,1.909,0,2.896-0.392c0.215-0.086,0.703-0.479,1.317-1.023l9.263-9.27
	C30.936,29.846,31.477,29.184,31.555,28.918"/>
</svg>
